<svg width="982" height="704" viewBox="0 0 982 704" fill="none" xmlns="http://www.w3.org/2000/svg">
<g clip-path="url(#clip0)">
<path d="M965.904 313.487C965.728 314.486 965.552 315.485 965.357 316.484C959.071 350.497 948.807 383.289 933.546 413.396C933.045 414.395 932.535 415.394 932.016 416.393C922.222 435.377 910.195 453.217 896.171 469.562C888.568 478.382 880.279 486.756 870.424 492.803C856.609 501.275 840.457 504.717 824.584 507.535C808.09 510.469 791.382 512.886 774.711 515.562C768.802 516.489 762.93 517.461 757.095 518.478C740.99 521.278 725.005 524.515 709.401 528.805C690.106 534.156 671.387 541.049 653.77 550.815C652.361 551.588 650.967 552.381 649.589 553.196C648.207 553.998 646.807 554.819 645.463 555.657C644.118 556.495 642.765 557.325 641.43 558.172L639.371 559.51C638.695 559.938 638.027 560.402 637.359 560.83C635.375 562.132 633.419 563.505 631.463 564.825L631.388 564.878C630.1 565.77 628.82 566.662 627.541 567.554C620.318 572.7 613.253 578.086 606.216 583.49L601.774 586.906C599.481 588.654 597.188 590.399 594.895 592.141C593.55 593.167 592.187 594.183 590.834 595.2C589.851 595.94 588.877 596.68 587.876 597.412C582.86 601.13 577.779 604.769 572.596 608.247C571.363 609.076 570.111 609.906 568.887 610.717C558.513 617.543 547.477 623.391 535.936 628.179L535.787 628.241C530.102 630.572 524.252 632.512 518.282 634.047C514.861 634.939 511.44 635.643 507.972 636.196C498.734 637.733 489.305 637.889 480.018 636.66C461.761 634.172 444.655 625.958 426.445 623.211C388.876 617.602 352.392 635.697 317.039 649.903C308.385 653.387 299.635 656.657 290.79 659.713C284.93 661.746 279.043 663.682 273.127 665.519C237.089 676.73 199.955 684.371 162.302 688.322C146.93 689.936 130.899 690.703 115.248 689.544C109.338 689.126 103.456 688.391 97.6316 687.341C77.8179 683.774 59.3207 676.203 44.421 662.371C32.0432 651.054 23.3092 636.259 16.6521 620.821C13.9756 614.62 11.6175 608.277 9.57771 601.79C6.37155 591.624 3.9634 581.241 2.37356 570.729C2.01196 568.357 1.68745 565.975 1.44638 563.594C0.964252 559.51 0.60574 555.408 0.370855 551.287C-0.927302 529.39 1.29628 507.431 6.96308 486.186C13.2771 462.651 23.8099 440.115 28.4458 416.357C28.6405 415.358 28.8166 414.36 28.9928 413.361C29.6109 409.793 30.0807 406.161 30.4021 402.463C32.7386 373.408 23.6986 344.968 16.5594 316.484C16.309 315.485 16.0587 314.486 15.8176 313.487C15.045 310.33 14.3125 307.17 13.6202 304.008C7.00944 273.882 5.20144 241.644 11.0705 211.581C11.2559 210.582 11.4692 209.574 11.6824 208.584C15.6414 189.963 22.6324 172.252 33.3412 156.476C44.3283 140.281 58.7551 126.806 74.137 114.963C81.6471 109.196 89.4138 103.8 97.4369 98.7764C103.204 95.1735 109.076 91.7638 115.053 88.5474C163.35 62.685 218.452 50.0482 272.933 52.8752C275.819 53.0179 278.7 53.2081 281.574 53.4459C284.59 53.6956 287.598 53.9929 290.595 54.3377C325.671 58.2349 359.8 67.8932 393.725 78.4611C405.092 82.0283 416.432 85.5955 427.771 89.1627C432.815 90.7442 437.856 92.3049 442.893 93.8447C467.603 101.345 492.72 108.114 518.069 113.215C523.947 114.404 529.819 115.489 535.685 116.47C556.079 119.984 576.716 122.029 597.426 122.588C605.461 122.778 613.497 122.698 621.532 122.347C625.593 122.168 629.658 121.907 633.725 121.562C675.735 118.102 716.243 106.499 756.919 95.6016C762.797 94.0231 768.685 92.4535 774.535 90.9374C782.268 88.9398 790.01 87.0046 797.779 85.221C846.159 74.0466 889.273 80.4676 934.25 103.512C944.449 108.747 954.648 115.061 960.953 124.835C967.258 134.609 968.788 146.711 969.956 158.358C971.606 174.928 972.737 191.729 973.099 208.602C973.099 209.601 973.099 210.6 973.164 211.599C973.98 245.764 971.82 280.187 965.904 313.487Z" fill="#B400F3"/>
<path d="M965.904 313.487C965.728 314.486 965.552 315.485 965.357 316.484C959.071 350.497 948.807 383.289 933.546 413.396C933.045 414.395 932.535 415.394 932.016 416.393C922.222 435.377 910.195 453.217 896.171 469.562C888.568 478.382 880.279 486.756 870.424 492.803C856.609 501.275 840.457 504.717 824.584 507.535C808.09 510.469 791.382 512.886 774.711 515.562C768.802 516.489 762.93 517.461 757.095 518.478C740.99 521.278 725.005 524.515 709.401 528.805C690.106 534.156 671.387 541.049 653.77 550.815C652.361 551.588 650.967 552.381 649.589 553.196C648.207 553.998 646.807 554.819 645.463 555.657C644.118 556.495 642.765 557.325 641.43 558.172L639.371 559.51C638.695 559.938 638.027 560.402 637.359 560.83C635.375 562.132 633.419 563.505 631.463 564.825L631.388 564.878C630.1 565.77 628.82 566.662 627.541 567.554C620.318 572.7 613.253 578.086 606.216 583.49L601.774 586.906C599.481 588.654 597.188 590.399 594.895 592.141C593.55 593.167 592.187 594.183 590.834 595.2C589.851 595.94 588.877 596.68 587.876 597.412C582.86 601.13 577.779 604.769 572.596 608.247C571.363 609.076 570.111 609.906 568.887 610.717C558.513 617.543 547.477 623.391 535.936 628.179L535.787 628.241C530.102 630.572 524.252 632.512 518.282 634.047C514.861 634.939 511.44 635.643 507.972 636.196C498.734 637.733 489.305 637.889 480.018 636.66C461.761 634.172 444.655 625.958 426.445 623.211C388.876 617.602 352.392 635.697 317.039 649.903C308.385 653.387 299.635 656.657 290.79 659.713C284.93 661.746 279.043 663.682 273.127 665.519C237.089 676.73 199.955 684.371 162.302 688.322C146.93 689.936 130.899 690.703 115.248 689.544C109.338 689.126 103.456 688.391 97.6316 687.341C77.8179 683.774 59.3207 676.203 44.421 662.371C32.0432 651.054 23.3092 636.259 16.6521 620.821C13.9756 614.62 11.6175 608.277 9.57771 601.79C6.37155 591.624 3.9634 581.241 2.37356 570.729C2.01196 568.357 1.68745 565.975 1.44638 563.594C0.964252 559.51 0.60574 555.408 0.370855 551.287C-0.927302 529.39 1.29628 507.431 6.96308 486.186C13.2771 462.651 23.8099 440.115 28.4458 416.357C28.6405 415.358 28.8166 414.36 28.9928 413.361C29.6109 409.793 30.0807 406.161 30.4021 402.463C32.7386 373.408 23.6986 344.968 16.5594 316.484C16.309 315.485 16.0587 314.486 15.8176 313.487C15.045 310.33 14.3125 307.17 13.6202 304.008C7.00944 273.882 5.20144 241.644 11.0705 211.581C11.2559 210.582 11.4692 209.574 11.6824 208.584C15.6414 189.963 22.6324 172.252 33.3412 156.476C44.3283 140.281 58.7551 126.806 74.137 114.963C81.6471 109.196 89.4138 103.8 97.4369 98.7764C103.204 95.1735 109.076 91.7638 115.053 88.5474C163.35 62.685 218.452 50.0482 272.933 52.8752C275.819 53.0179 278.7 53.2081 281.574 53.4459C284.59 53.6956 287.598 53.9929 290.595 54.3377C325.671 58.2349 359.8 67.8932 393.725 78.4611C405.092 82.0283 416.432 85.5955 427.771 89.1627C432.815 90.7442 437.856 92.3049 442.893 93.8447C467.603 101.345 492.72 108.114 518.069 113.215C523.947 114.404 529.819 115.489 535.685 116.47C556.079 119.984 576.716 122.029 597.426 122.588C605.461 122.778 613.497 122.698 621.532 122.347C625.593 122.168 629.658 121.907 633.725 121.562C675.735 118.102 716.243 106.499 756.919 95.6016C762.797 94.0231 768.685 92.4535 774.535 90.9374C782.268 88.9398 790.01 87.0046 797.779 85.221C846.159 74.0466 889.273 80.4676 934.25 103.512C944.449 108.747 954.648 115.061 960.953 124.835C967.258 134.609 968.788 146.711 969.956 158.358C971.606 174.928 972.737 191.729 973.099 208.602C973.099 209.601 973.099 210.6 973.164 211.599C973.98 245.764 971.82 280.187 965.904 313.487Z" fill="url(#paint0_linear)"/>
<path opacity="0.5" d="M645.018 413.396H641.856V414.725V416.393H645.435L645.018 413.396ZM609.183 413.396C609.178 413.42 609.178 413.444 609.183 413.468L608.904 415.947V416.17V416.393H636.349V416.214L638.305 413.396H609.183ZM535.797 413.396V316.484H567.321C566.987 316.216 566.644 315.949 566.291 315.699L565.828 315.36C565.633 315.208 565.438 315.066 565.234 314.932C565.03 314.798 564.548 314.459 564.187 314.227C563.825 313.996 563.603 313.844 563.26 313.657L563.046 313.523H563H535.797V308.217L535.064 308.556L534.285 308.975H534.23L534.063 309.073L533.581 309.376C533.414 309.474 533.247 309.572 533.089 309.679C532.607 309.991 532.162 310.33 531.652 310.678L531.189 311.035C530.873 311.267 530.577 311.507 530.261 311.748C529.028 312.72 527.814 313.737 526.553 314.673C526.237 314.914 525.922 315.146 525.625 315.369C524.951 315.844 524.252 316.284 523.53 316.689C523.23 316.868 522.921 317.032 522.603 317.179L522.084 317.411L521.611 317.607C520.497 318.059 519.342 318.411 518.162 318.66V413.396H470.876C470.876 413.503 470.941 413.601 470.968 413.708C471.228 414.6 471.488 415.492 471.738 416.384H518.171V520.27H518.894L519.719 520.324L521.221 520.431L523.651 520.663L524.745 520.787L525.95 520.93H526.126C526.822 521.019 527.526 521.126 528.24 521.233L528.694 521.305L529.714 521.465L531.179 521.715L534.693 521.537L535.175 521.635C535.37 521.635 535.565 521.706 535.769 521.751V416.393H608.84V416.17V415.947L609.118 413.468C609.113 413.444 609.113 413.42 609.118 413.396H535.797ZM645.018 413.396H641.856V414.725V416.393H645.435L645.018 413.396ZM607.208 413.396L606.892 416.393H637.424L639.501 413.396H607.208ZM535.815 413.396V316.484H567.339C567.005 316.216 566.662 315.949 566.31 315.699L565.846 315.36C565.652 315.208 565.457 315.066 565.253 314.932C565.049 314.798 564.567 314.459 564.205 314.227C563.844 313.996 563.621 313.844 563.278 313.657L563.065 313.523H563H535.797V308.217L535.064 308.556L534.285 308.975H534.23L534.063 309.073L533.581 309.376C533.414 309.474 533.247 309.572 533.089 309.679C532.607 309.991 532.162 310.33 531.652 310.678L531.189 311.035C530.873 311.267 530.577 311.507 530.261 311.748C529.028 312.72 527.814 313.737 526.553 314.673C526.237 314.914 525.922 315.146 525.625 315.369C524.951 315.844 524.252 316.284 523.53 316.689C523.23 316.868 522.921 317.032 522.603 317.179L522.084 317.411L521.611 317.607C520.497 318.059 519.342 318.411 518.162 318.66V413.396H470.876C470.876 413.503 470.941 413.601 470.968 413.708C471.228 414.6 471.497 415.492 471.747 416.384H518.171V520.261L518.894 520.306L519.719 520.359L521.221 520.466L523.651 520.698L524.745 520.823L525.95 520.966H526.126C526.822 521.055 527.526 521.162 528.24 521.269L528.694 521.34L529.714 521.501L531.179 521.751L534.693 521.572L535.175 521.67C535.37 521.67 535.565 521.742 535.769 521.786V416.393H606.892L607.226 413.396H535.815ZM774.711 211.581H973.34C973.34 210.582 973.34 209.583 973.275 208.584H774.711V90.9194C768.815 92.4355 762.927 94.0051 757.095 95.5836V208.584H541.063L540.516 208.013L541.341 207.122L621.69 122.302C613.655 122.659 605.619 122.739 597.584 122.543L535.797 187.734V116.452C529.9 115.471 524.028 114.386 518.18 113.197V184.452L427.845 89.1447C416.506 85.5775 405.167 81.9479 393.8 78.4431L516.586 208.013L516.039 208.584H290.67V54.3019C287.666 53.9749 284.659 53.6777 281.648 53.4101C278.774 53.1664 275.894 52.9761 273.007 52.8394V208.584H115.128V88.5472C109.138 91.7577 103.266 95.1674 97.5112 98.7762V208.584H11.6454C11.4321 209.574 11.2189 210.582 11.0334 211.581H97.437V313.487H15.8177C16.0587 314.486 16.3091 315.485 16.5594 316.484H97.4741V413.396H28.965C28.7889 414.395 28.6127 415.394 28.418 416.393H97.4741V687.368C103.299 688.417 109.18 689.153 115.09 689.57V416.393H273.007V665.545C278.929 663.696 284.816 661.761 290.67 659.74V416.393H518.143V634.082C524.114 632.548 529.963 630.607 535.648 628.277L535.797 628.214V416.393H757.039V518.478C762.905 517.461 768.777 516.489 774.656 515.561V416.393H931.97C932.489 415.394 932.999 414.395 933.5 413.396H774.711V316.484H965.367C965.561 315.485 965.737 314.486 965.914 313.487H774.711V211.581ZM115.137 211.581H273.007V313.487H115.128L115.137 211.581ZM115.137 413.396V316.484H273.007V413.396H115.137ZM290.679 211.581H518.143V313.487H290.67L290.679 211.581ZM290.679 413.396V316.484H518.143V413.396H290.679ZM757.049 413.396H535.797V316.484H757.039L757.049 413.396ZM757.049 313.514H535.797V214.31L538.903 211.581H757.039L757.049 313.514ZM609.192 413.396C609.187 413.42 609.187 413.444 609.192 413.468L608.914 415.947V416.17V416.393H636.358V416.214L638.314 413.396H609.192ZM645.027 413.396H641.866V414.725V416.393H645.444L645.027 413.396ZM535.806 413.396V316.484H567.33C566.996 316.216 566.653 315.949 566.301 315.699L565.837 315.36C565.642 315.208 565.448 315.066 565.244 314.932C565.04 314.798 564.558 314.459 564.196 314.227C563.834 313.996 563.612 313.844 563.269 313.657L563.056 313.523H563.009H535.797V308.217L535.064 308.556L534.285 308.975H534.23L534.063 309.073L533.581 309.376C533.414 309.474 533.247 309.572 533.089 309.679C532.607 309.991 532.162 310.33 531.652 310.678L531.189 311.035C530.873 311.267 530.577 311.507 530.261 311.748C529.028 312.72 527.814 313.737 526.553 314.673C526.237 314.914 525.922 315.146 525.625 315.369C524.951 315.844 524.252 316.284 523.53 316.689C523.23 316.868 522.921 317.032 522.603 317.179L522.084 317.411L521.611 317.607C520.497 318.059 519.342 318.411 518.162 318.66V413.396H470.876C470.876 413.503 470.941 413.601 470.968 413.708C471.228 414.6 471.488 415.492 471.738 416.384H518.171V520.27H518.894L519.719 520.324L521.221 520.431L523.651 520.663L524.745 520.787L525.95 520.93H526.126C526.822 521.019 527.526 521.126 528.24 521.233L528.694 521.305L529.714 521.465L531.179 521.715L534.693 521.537L535.175 521.635C535.37 521.635 535.565 521.706 535.769 521.751V416.393H608.84V416.17V415.947L609.118 413.468C609.113 413.444 609.113 413.42 609.118 413.396H535.806Z" fill="#C700F9"/>
<path opacity="0.1" d="M191.035 141.414H192.445C191.962 141.145 191.557 140.766 191.264 140.31C190.971 139.854 190.8 139.336 190.766 138.801V138.801C190.766 136.732 193.4 135.046 196.617 135.046H237.552C240.769 135.046 243.402 136.732 243.402 138.801C243.402 140.861 240.769 142.555 237.552 142.555H236.189C236.669 142.825 237.072 143.205 237.363 143.661C237.654 144.117 237.824 144.634 237.858 145.168C237.858 146.952 235.948 148.414 233.389 148.816H245.173C248.381 148.816 251.014 150.501 251.014 152.57C251.014 154.639 248.381 156.316 245.173 156.316H204.192C200.984 156.316 198.351 154.63 198.351 152.57C198.351 150.787 200.261 149.324 202.82 148.923H191.035C187.827 148.923 185.194 147.237 185.194 145.168C185.194 143.099 187.809 141.414 191.035 141.414Z" fill="#DA88FF"/>
<path opacity="0.1" d="M634.708 177.148H636.08C635.597 176.878 635.191 176.498 634.898 176.04C634.605 175.583 634.435 175.063 634.402 174.526V174.526C634.402 172.466 637.035 170.781 640.252 170.781H681.187C684.404 170.781 687.037 172.466 687.037 174.526C687.037 176.595 684.404 178.281 681.187 178.281H679.824C680.305 178.552 680.708 178.934 681 179.391C681.291 179.848 681.46 180.368 681.493 180.903C681.493 182.686 679.583 184.14 677.024 184.541H688.808C692.016 184.541 694.65 186.236 694.65 188.296C694.65 190.356 692.016 192.05 688.808 192.05H647.883C644.675 192.05 642.042 190.365 642.042 188.296C642.042 186.512 643.952 185.05 646.511 184.657H634.708C631.5 184.657 628.866 182.963 628.866 180.903C628.866 178.843 631.518 177.148 634.708 177.148Z" fill="#DA88FF"/>
<path opacity="0.1" d="M128.238 330.066H129.61C129.129 329.795 128.726 329.413 128.434 328.956C128.143 328.499 127.974 327.979 127.941 327.444V327.444C127.941 325.384 130.565 323.69 133.782 323.69H174.717C177.934 323.69 180.568 325.384 180.568 327.444C180.568 329.513 177.934 331.199 174.717 331.199H173.354C173.835 331.47 174.238 331.852 174.53 332.309C174.821 332.766 174.99 333.285 175.023 333.821C175.023 335.604 173.113 337.058 170.554 337.459H182.338C185.556 337.459 188.18 339.145 188.18 341.214C188.18 343.283 185.556 344.968 182.338 344.968H141.394C138.186 344.968 135.553 343.274 135.553 341.214C135.553 339.43 137.472 337.968 140.022 337.566H128.238C125.03 337.566 122.396 335.881 122.396 333.821C122.396 331.761 125.03 330.066 128.238 330.066Z" fill="#DA88FF"/>
<path d="M601.663 586.942C599.37 588.69 597.077 590.435 594.784 592.177C593.439 593.202 592.076 594.219 590.722 595.235C589.74 595.976 588.766 596.716 587.765 597.447C582.749 601.166 577.668 604.805 572.485 608.283C571.252 609.112 570 609.941 568.776 610.753C558.401 617.579 547.366 623.426 535.824 628.214L535.676 628.277V586.942H601.663Z" fill="#65617D"/>
<path d="M704.839 424.49L705.878 393.678C705.257 393.215 704.626 392.787 704.023 392.359C704.28 383.172 703.734 373.981 702.392 364.882C698.201 334.07 670.988 333.401 663.311 339.76C662.294 340.604 661.184 341.34 660.001 341.954C660.696 337.557 661.559 333.152 662.18 328.8C665.536 305.327 660.326 278.921 641.393 263.751C633.465 257.411 623.776 253.513 615.07 248.207C599.475 238.745 587.153 224.771 571.382 215.558C555.61 206.346 533.46 202.895 519.701 214.738C514.37 219.322 510.93 225.68 505.459 230.104C495.26 238.344 479.359 238.888 470.458 248.091C470.013 248.555 469.587 249.028 469.179 249.527C461.762 258.677 463.792 271.653 466.156 283.005C469.003 296.668 467.825 307.619 480.008 311.543C480.055 312.087 480.092 312.631 480.157 313.166C481.148 321.548 484.031 329.619 488.605 336.816C493.18 344.013 499.334 350.162 506.637 354.831L504.662 355.509C499.396 357.293 494.658 359.023 491.626 360.209C480.5 364.57 457.079 370.251 457.079 370.251C457.079 370.251 456.523 376.672 456.625 386.143C448.818 394.303 435.791 408.643 431.962 417.142C426.399 429.538 394.968 465.041 386.595 470.4C378.223 475.76 369.146 482.119 369.146 482.119C369.146 482.119 355.887 489.155 349.61 489.824C345.262 490.288 331.809 487.809 331.809 487.809C331.809 487.809 278.079 424.49 281.565 473.076C285.051 521.661 327.97 523.311 327.97 523.311L371.241 522.642C371.241 522.642 394.625 525.657 405.093 517.292C414.031 510.157 460.352 471.016 475.233 453.26C475.577 453.626 475.92 453.982 476.281 454.33C476.281 454.33 482.206 446.964 482.911 454.33C483.615 461.696 479.063 465.032 481.51 467.707C483.958 470.383 491.283 479.764 491.626 483.448C491.969 487.131 481.863 502.175 498.951 513.591C499.22 513.769 499.507 513.938 499.822 514.108C502.873 520.787 512.571 527.324 512.571 527.324L564.91 526.656L663.663 534.022C663.663 534.022 666.603 531.534 670.58 527.467C675.893 532.158 683.264 536.18 691.571 533.71C691.571 533.71 703.439 519.985 703.792 510.942C703.792 510.942 696.115 491.848 692.666 486.159C689.216 480.469 695.113 468.073 695.113 468.073C695.113 468.073 699.295 456.016 701.743 456.016C704.19 456.016 702.438 447.989 702.438 447.989C701.513 446.677 700.934 445.168 700.751 443.593C700.568 442.017 700.788 440.422 701.39 438.946C703.439 433.872 704.839 424.49 704.839 424.49Z" fill="url(#paint1_linear)"/>
<path d="M645.639 417.552L641.93 421.726L626.947 438.51L607.375 439.651L576.045 441.506C576.045 441.506 533.803 392.546 541.74 381.889C544.623 378.045 545.096 372.971 544.521 368.182C544.447 367.522 544.345 366.862 544.225 366.211C543.275 361.144 541.616 356.224 539.292 351.585L540.33 351.131L540.998 350.836L577.937 334.623L587.079 330.61C587.534 333.034 588.378 335.375 589.582 337.548C589.758 337.887 589.953 338.226 590.157 338.547C602.757 358.613 643.163 345.922 643.163 345.922L645.639 417.552Z" fill="#EE8E9E"/>
<path d="M700.259 392.501C699.981 404.648 697.923 409.891 697.923 409.891L645.639 417.552L643.683 404.496L635.941 352.941L643.21 345.949C646.114 346.552 649.123 346.505 652.005 345.812C654.888 345.119 657.566 343.799 659.834 341.954C667.446 335.622 694.455 336.291 698.609 366.924C699.829 375.398 700.381 383.948 700.259 392.501V392.501Z" fill="#EE8E9E"/>
<path d="M687.881 534.771C687.881 534.771 699.647 521.117 699.999 512.128L688.224 493.142L677.84 482.44L658.443 518.451C658.443 518.451 671.257 539.765 687.881 534.771Z" fill="#DFE5EE"/>
<path opacity="0.1" d="M687.881 534.771C687.881 534.771 699.647 521.117 699.999 512.128L688.224 493.142L677.84 482.44L658.443 518.451C658.443 518.451 671.257 539.765 687.881 534.771Z" fill="black"/>
<path d="M590.722 595.235C589.739 595.976 588.766 596.716 587.765 597.447C582.749 601.166 577.668 604.805 572.485 608.283C571.252 609.112 570 609.941 568.776 610.753H518.143H290.67H273.007L185.5 607.739L115.127 607.168L97.511 606.276L9.61471 601.817C6.39465 591.643 3.97408 581.251 2.37347 570.729C2.01187 568.356 1.68735 565.975 1.44629 563.594L97.4739 568.713L115.09 569.667L272.97 578.14L290.632 579.085L518.106 591.303L535.611 592.248H535.759L590.722 595.235Z" fill="#D48A9B"/>
<path d="M709.345 528.805C690.051 534.156 671.331 541.049 653.715 550.815C652.315 551.59 650.933 552.384 649.533 553.196C648.133 554.007 646.752 554.819 645.407 555.657C644.063 556.495 642.709 557.325 641.374 558.172L639.316 559.51L637.304 560.83C635.32 562.141 633.363 563.505 631.407 564.825L631.333 564.878C630.044 565.77 628.764 566.662 627.485 567.554C620.262 572.7 613.197 578.086 606.16 583.49C604.676 584.632 603.19 585.77 601.7 586.906L594.839 592.141C593.495 593.166 592.132 594.183 590.778 595.2C589.795 595.94 588.822 596.68 587.82 597.411L535.898 595.03H535.75L518.245 594.246L290.67 583.874L273.007 583.062L115.127 575.848L97.5111 575.036L2.37355 570.729C2.01195 568.356 1.68744 565.975 1.44638 563.594C0.964246 559.51 0.605734 555.407 0.37085 551.287L97.5018 518.291L115.118 512.289L131.121 506.849L160.281 508.311L227.677 511.638L273.035 513.93L290.697 514.821L301.981 515.392L304.679 515.535L399.641 520.306L400.642 520.368L443.014 522.491H443.496H443.774L448.011 522.696L462.457 523.427L480.518 524.319L486.471 524.622L487.593 524.685L496.011 525.104L498.413 525.22L506.451 525.63L509.65 525.799H509.752H510.42L517.939 526.183L529.584 526.772H529.64L533.256 526.95H533.645L535.806 527.066L541.109 527.333L545.745 527.565H545.791L550.993 527.824H551.076L555.017 528.029L558.039 528.181L568.767 528.725L570.695 528.823H571.363L572.29 528.876L575.433 529.037L576.843 529.108L587.783 529.652H588.785L604.936 529.518H605.047L666.454 529.037H667.632H668.874H672.527L692.295 528.885H695.243L709.345 528.805Z" fill="#EFC6CD"/>
<path d="M294.907 530.027L300.618 559.251L455.902 557.004C455.902 557.004 467.584 560.25 467.324 551.261C467.324 551.261 490.958 529.777 610.666 554.757L564.706 520.039L439.073 526.531L293.396 522.785L294.907 530.027Z" fill="#DA88FF"/>
<path d="M297.763 523.035L303.214 554.756C303.214 554.756 436.728 551.011 457.719 554.507L441.855 525.532C441.855 525.532 361.126 518.291 297.763 523.035Z" fill="white"/>
<path opacity="0.1" d="M297.763 523.035L303.214 554.756C303.214 554.756 436.728 551.011 457.719 554.507L441.855 525.532C441.855 525.532 361.126 518.291 297.763 523.035Z" fill="black"/>
<path d="M299.756 522.919L305.134 552.42C305.134 552.42 436.95 548.942 457.719 552.188L442.078 525.247C442.078 525.247 362.322 518.505 299.756 522.919Z" fill="white"/>
<path opacity="0.1" d="M302.176 523.829L307.415 551.421C307.415 551.421 436.338 548.166 456.69 551.207L441.392 525.996C441.392 525.996 363.379 519.664 302.176 523.829Z" fill="black"/>
<path d="M303.214 522.821L308.481 550.467C308.481 550.467 437.405 547.212 457.756 550.253L442.421 525.015C442.421 525.015 364.417 518.692 303.214 522.821Z" fill="white"/>
<path d="M211.999 447.793C211.999 447.793 218.749 456.274 208.893 469.09C199.037 481.905 190.896 492.713 194.188 500.704C194.188 500.704 209.023 476.911 221.169 476.625C233.315 476.34 225.322 462.098 211.999 447.793Z" fill="#DA88FF"/>
<path opacity="0.1" d="M211.999 447.793C212.592 448.616 213.057 449.517 213.38 450.469C225.193 463.846 231.488 476.331 220.13 476.599C209.551 476.884 196.867 495.077 193.826 499.679C193.931 500.023 194.052 500.371 194.188 500.722C194.188 500.722 209.023 476.929 221.169 476.643C233.315 476.358 225.322 462.098 211.999 447.793Z" fill="black"/>
<path d="M224.543 458.611C224.543 461.59 224.191 464.015 223.765 464.015C223.338 464.015 222.986 461.59 222.986 458.611C222.986 455.632 223.422 457.024 223.848 457.024C224.275 457.024 224.543 455.623 224.543 458.611Z" fill="#FFD037"/>
<path d="M228.846 462.169C226.12 463.605 223.746 464.47 223.542 464.104C223.338 463.739 225.397 462.321 228.104 460.858C230.811 459.396 229.754 460.466 229.958 460.858C230.162 461.251 231.572 460.742 228.846 462.169Z" fill="#FFD037"/>
<path d="M176.367 447.793C176.367 447.793 169.618 456.274 179.483 469.09C189.348 481.905 197.47 492.713 194.188 500.704C194.188 500.704 179.307 476.911 167.198 476.625C155.089 476.34 163.044 462.098 176.367 447.793Z" fill="#DA88FF"/>
<path opacity="0.1" d="M176.367 447.793C175.779 448.619 175.314 449.519 174.986 450.469C163.174 463.846 156.878 476.331 168.236 476.599C178.815 476.884 191.508 495.077 194.549 499.679C194.45 500.023 194.33 500.371 194.188 500.722C194.188 500.722 179.307 476.929 167.198 476.643C155.089 476.358 163.044 462.098 176.367 447.793Z" fill="black"/>
<path d="M163.823 458.611C163.823 461.59 164.175 464.015 164.602 464.015C165.028 464.015 165.38 461.59 165.38 458.611C165.38 455.632 164.945 457.024 164.518 457.024C164.092 457.024 163.823 455.623 163.823 458.611Z" fill="#FFD037"/>
<path d="M159.521 462.169C162.247 463.605 164.629 464.47 164.833 464.104C165.037 463.739 162.979 462.321 160.272 460.858C157.564 459.396 158.621 460.466 158.417 460.858C158.213 461.251 156.795 460.742 159.521 462.169Z" fill="#FFD037"/>
<path d="M230.459 489.262L230.125 491.938L229.652 495.674L229.458 497.235L228.985 500.98L228.781 502.541L228.299 506.287L222.902 548.844C222.42 552.643 215.967 555.604 208.179 555.604H180.16C172.371 555.604 165.927 552.643 165.445 548.844L160.04 506.287L159.567 502.541L159.372 500.98L158.89 497.235L158.695 495.674L158.223 491.938L157.88 489.262C157.611 487.113 161.097 485.302 165.51 485.302H222.865C227.269 485.302 230.765 487.113 230.459 489.262Z" fill="#65617D"/>
<path d="M230.153 491.911L229.68 495.656H158.696L158.223 491.911H230.153Z" fill="#9D9CB5"/>
<path d="M229.485 497.217L229.012 500.963H159.372L158.89 497.217H229.485Z" fill="#9D9CB5"/>
<path d="M228.808 502.523L228.336 506.26H160.04L159.567 502.523H228.808Z" fill="#9D9CB5"/>
<path d="M316.028 485.82C316.028 485.82 298.022 469.17 298.718 490.814C299.413 512.458 316.028 485.82 316.028 485.82Z" fill="#EE8E9E"/>
<path d="M477.718 447.856C477.32 449.532 475.382 452.315 472.359 455.802C456.745 473.887 412.324 511.477 403.618 518.451C393.234 526.78 370.036 523.802 370.036 523.802L327.108 524.471C327.108 524.471 284.523 522.803 281.055 474.529C277.587 426.256 330.909 489.182 330.909 489.182C330.909 489.182 344.26 491.643 348.572 491.179C354.802 490.52 367.959 483.528 367.959 483.528C367.959 483.528 376.962 477.196 385.269 471.872C393.577 466.548 424.739 431.241 430.284 418.917C433.798 411.095 445.119 398.307 452.935 390.013C457.422 385.242 460.751 381.987 460.751 381.987C460.751 381.987 480.138 437.528 477.718 447.856Z" fill="#EE8E9E"/>
<path opacity="0.1" d="M477.718 447.856C477.32 449.532 475.382 452.315 472.359 455.802C456.597 440.364 453.306 409.561 452.935 389.977C457.422 385.206 460.751 381.951 460.751 381.951C460.751 381.951 480.138 437.528 477.718 447.856Z" fill="black"/>
<path opacity="0.1" d="M641.921 421.726L626.947 438.51L607.375 439.651L576.045 441.506C576.045 441.506 533.803 392.546 541.74 381.889C544.623 378.045 545.096 372.971 544.521 368.182C544.447 367.522 544.345 366.862 544.225 366.211C543.275 361.144 541.616 356.224 539.292 351.585L540.33 351.13L540.998 350.836C542.647 355.254 543.785 359.833 544.391 364.49C544.493 365.123 544.586 365.783 544.679 366.461C545.003 368.868 545.3 371.544 545.606 374.487C548.017 401.437 565.642 411.577 573.598 414.805C576.155 415.843 578.656 417.007 581.089 418.292C588.743 422.352 597.569 423.887 606.216 422.662C625.853 420.183 641.865 406.458 641.865 406.458L641.949 419.969L641.921 421.726Z" fill="black"/>
<path d="M642.524 526.45C642.524 526.45 513.73 526.112 496.753 514.795C479.777 503.478 489.836 488.486 489.484 484.821C489.132 481.156 481.872 471.836 479.452 469.161C477.032 466.486 481.529 463.168 480.833 455.846C480.138 448.525 474.26 455.846 474.26 455.846C450.014 432.196 455.206 372.257 455.206 372.257C455.206 372.257 478.386 366.603 489.512 362.26C492.525 361.083 497.217 359.406 502.492 357.596L504.449 356.918C518.05 352.236 534.22 346.948 534.22 346.948C534.22 346.948 537.326 344.834 540.451 351.157C541.879 354.065 543.316 358.747 544.466 366.229C544.568 366.862 544.66 367.522 544.753 368.2C545.078 370.608 545.374 373.283 545.68 376.226C548.091 403.176 565.716 413.316 573.672 416.544C576.23 417.582 578.73 418.746 581.163 420.031C588.817 424.091 597.643 425.626 606.29 424.401C625.927 421.922 641.94 408.197 641.94 408.197L642.023 421.708L642.264 462.303L642.524 526.45Z" fill="#DFE5EE"/>
<path d="M636.979 473.834L634.902 486.489C634.902 486.489 583.657 498.805 563.584 502.47C543.511 506.135 500.221 501.471 497.106 509.462C493.99 517.452 510.262 528.448 510.262 528.448L562.184 527.779L660.168 535.11C660.168 535.11 697.561 503.469 685.443 481.486C673.325 459.503 636.979 473.834 636.979 473.834Z" fill="#EE8E9E"/>
<path opacity="0.1" d="M531.383 373.925C531.383 373.925 507.833 392.573 512.339 401.571C516.845 410.569 531.383 373.925 531.383 373.925Z" fill="black"/>
<path opacity="0.1" d="M502.298 407.555C502.298 407.555 478.404 447.187 479.795 450.183C481.186 453.18 487.759 463.837 487.407 455.846C487.055 447.856 502.298 407.555 502.298 407.555Z" fill="black"/>
<path opacity="0.1" d="M511.996 414.556C511.996 414.556 506.433 439.196 500.916 449.523C495.399 459.85 511.996 414.556 511.996 414.556Z" fill="black"/>
<path opacity="0.1" d="M590.203 338.574C585.625 346.649 579.103 353.552 571.183 358.706C563.263 363.86 554.175 367.115 544.679 368.2H544.568C529.63 369.887 514.58 366.097 502.418 357.587C516.326 352.754 534.146 346.939 534.146 346.939C534.146 346.939 537.252 344.825 540.377 351.148L587.125 330.637C587.65 333.438 588.693 336.126 590.203 338.574V338.574Z" fill="black"/>
<path d="M597.509 308.984C597.527 319.013 594.809 328.871 589.628 337.575C587.154 341.726 584.155 345.566 580.7 349.008C571.061 358.661 558.217 364.768 544.391 366.273H544.271C542.061 366.517 539.838 366.639 537.614 366.639C522.897 366.639 508.695 361.428 497.718 352C486.741 342.572 479.757 329.586 478.098 315.521C477.84 313.363 477.714 311.192 477.718 309.02C477.718 293.74 484.029 279.087 495.261 268.283C506.494 257.479 521.728 251.409 537.614 251.409C553.499 251.409 568.734 257.479 579.966 268.283C591.199 279.087 597.509 293.74 597.509 309.02V308.984Z" fill="#EE8E9E"/>
<path opacity="0.1" d="M636.293 417.998L641.856 409.972C641.856 409.972 672.323 375.004 702.123 397.317L701.084 427.96C701.084 427.96 699.693 437.279 697.617 442.228C697.02 443.697 696.803 445.283 696.984 446.851C697.165 448.418 697.738 449.92 698.655 451.227C698.655 451.227 700.389 459.253 697.969 459.253C695.549 459.253 691.386 471.239 691.386 471.239C691.386 471.239 685.498 483.564 688.966 489.227C692.434 494.89 700.046 513.867 700.046 513.867C700.046 513.867 687.928 506.875 684.46 495.22C684.46 495.22 655.031 473.237 632.177 487.193L636.293 417.998Z" fill="black"/>
<path opacity="0.1" d="M700.259 392.501C699.981 404.648 697.922 409.891 697.922 409.891L645.639 417.552L643.683 404.496C650.525 397.629 675.411 375.798 700.259 392.501Z" fill="black"/>
<path d="M636.293 416.214L641.856 408.188C641.856 408.188 672.323 373.22 702.123 395.533L701.084 426.176C701.084 426.176 699.693 435.495 697.617 440.445C697.02 441.914 696.803 443.5 696.984 445.067C697.165 446.634 697.738 448.136 698.655 449.443C698.655 449.443 700.389 457.469 697.969 457.469C695.549 457.469 691.386 469.455 691.386 469.455C691.386 469.455 685.498 481.78 688.966 487.443C692.434 493.106 700.046 512.083 700.046 512.083C700.046 512.083 687.928 505.092 684.46 493.436C684.46 493.436 655.031 471.453 632.177 485.41L636.293 416.214Z" fill="#DFE5EE"/>
<path opacity="0.1" d="M685.452 393.572C685.452 393.572 635.255 423.215 637.675 449.211C637.675 449.211 665.722 401.562 685.452 393.572Z" fill="black"/>
<path opacity="0.1" d="M641.912 421.735L642.153 462.33C632.659 462.74 623.711 461.554 616.637 455.641C611.714 451.521 608.849 445.831 607.365 439.678C606.262 434.72 605.856 429.642 606.16 424.58C606.155 424.529 606.155 424.478 606.16 424.428C606.744 413.218 609.424 402.008 608.014 390.869C606.605 379.731 599.586 367.977 588.126 365.631C585.864 365.159 583.324 364.989 581.71 363.393C579.93 361.609 580.014 358.836 580.208 356.365L580.542 352.201C580.626 351.13 580.663 350.069 580.663 349.008C580.656 339.54 577.232 330.367 570.975 323.058C564.718 315.748 556.017 310.754 546.357 308.93L545.986 308.868C542.76 308.244 539.403 307.628 536.177 308.342C530.039 309.706 526.071 315.431 520.415 318.151C509.567 323.36 491.478 317.661 480.12 315.868C479.378 315.753 478.673 315.619 477.996 315.467C477.739 313.309 477.612 311.138 477.616 308.966C477.621 300.142 479.732 291.437 483.788 283.522C487.844 275.607 493.736 268.695 501.009 263.317C508.282 257.939 516.743 254.24 525.738 252.506C534.733 250.771 544.022 251.047 552.888 253.312C561.755 255.578 569.962 259.772 576.876 265.571C583.79 271.37 589.227 278.619 592.768 286.76C596.308 294.9 597.857 303.714 597.295 312.521C596.733 321.329 594.075 329.894 589.526 337.557C589.703 337.896 589.897 338.235 590.101 338.556C602.702 358.622 643.108 345.931 643.108 345.931L645.537 417.534L641.912 421.735Z" fill="black"/>
<path d="M522.593 317.162C528.212 314.433 532.18 308.707 538.355 307.352C541.573 306.638 544.929 307.254 548.174 307.869L548.545 307.94C558.758 309.884 567.874 315.363 574.168 323.34C580.461 331.316 583.495 341.236 582.693 351.22L582.359 355.384C582.155 357.846 582.072 360.637 583.871 362.403C585.475 363.999 588.015 364.187 590.277 364.632C601.737 366.987 608.756 378.678 610.165 389.879C611.575 401.081 608.849 412.326 608.311 423.581C607.773 434.835 609.924 447.258 618.769 454.651C632.677 466.245 653.817 459.645 672.221 458.584C664.081 458.584 657.98 450.504 657.535 442.692C657.09 434.88 660.706 427.442 664.164 420.397C667.622 413.352 671.09 405.771 670.32 397.977C669.263 387.275 660.492 378.705 657.136 368.405C653.223 356.419 656.997 343.55 658.768 331.092C662.096 307.762 656.913 281.498 638.138 266.418C630.276 260.113 620.661 256.234 612.02 250.954C596.536 241.51 584.325 227.66 568.674 218.474C553.023 209.289 531.049 205.882 517.392 217.654C512.107 222.211 508.695 228.534 503.262 232.931C492.646 241.537 475.771 241.697 467.26 252.256C459.935 261.344 461.919 274.248 464.265 285.529C467.389 300.574 465.628 312.283 482.345 314.959C493.656 316.68 511.736 322.379 522.593 317.162Z" fill="#603556"/>
<path opacity="0.1" d="M660.335 451.396C646.937 452.975 633.66 453.786 623.906 445.653C615.061 438.26 612.882 425.846 613.448 414.582C614.013 403.319 616.721 392.064 615.302 380.872C613.883 369.68 606.874 357.988 595.414 355.634C593.152 355.17 590.621 355.001 589.007 353.405C587.218 351.621 587.292 348.839 587.496 346.377L587.83 342.212C588.631 332.23 585.598 322.311 579.304 314.336C573.01 306.361 563.894 300.884 553.682 298.942L553.311 298.871C550.066 298.255 546.709 297.64 543.492 298.353C537.354 299.718 533.386 305.488 527.73 308.163C516.873 313.38 498.802 307.682 487.426 305.889C470.737 303.258 472.48 291.531 469.346 276.46C467.594 268.041 466.045 258.713 468.419 250.74C467.974 251.195 467.547 251.632 467.139 252.176C459.815 261.263 461.799 274.168 464.144 285.449C467.269 300.494 465.507 312.203 482.224 314.879C493.592 316.662 511.672 322.37 522.529 317.153C528.147 314.424 532.116 308.698 538.291 307.343C541.508 306.629 544.864 307.245 548.11 307.86L548.48 307.931C558.693 309.875 567.81 315.354 574.103 323.331C580.397 331.307 583.43 341.227 582.628 351.211L582.294 355.375C582.09 357.837 582.007 360.628 583.806 362.394C585.41 363.99 587.95 364.178 590.213 364.624C601.672 366.978 608.691 378.669 610.101 389.871C611.51 401.072 608.793 412.317 608.246 423.572C607.699 434.826 609.859 447.249 618.705 454.642C632.612 466.236 653.752 459.636 672.156 458.575C667.159 458.602 662.959 455.552 660.335 451.396Z" fill="black"/>
<path d="M284.05 481.147L341.21 460.635C342.561 460.15 344.058 460.201 345.37 460.776C346.683 461.351 347.704 462.404 348.21 463.703V463.703C348.715 465.003 348.662 466.442 348.064 467.705C347.466 468.967 346.371 469.95 345.021 470.436L287.86 490.948L275.603 489.771L284.05 481.147Z" fill="#5C5C8E"/>
<path opacity="0.1" d="M346.486 462.026C346.99 463.327 346.936 464.767 346.336 466.03C345.736 467.293 344.639 468.275 343.287 468.76L286.089 489.342L276.892 488.451L275.566 489.806L287.823 490.983L344.984 470.472C346.334 469.985 347.429 469.003 348.027 467.74C348.625 466.478 348.678 465.038 348.173 463.739V463.739C347.752 462.655 346.969 461.736 345.948 461.126C346.154 461.411 346.333 461.712 346.486 462.026V462.026Z" fill="white"/>
<path d="M284.059 481.147L287.86 490.948L277.81 489.976L275.612 489.762L278.616 486.694L284.059 481.147Z" fill="#EFC8C4"/>
<path d="M278.607 486.667C278.842 486.836 279.043 487.044 279.201 487.282C279.294 487.425 279.344 487.59 279.344 487.759C279.344 487.928 279.294 488.094 279.201 488.237C279.042 488.394 278.857 488.523 278.653 488.62C278.424 488.768 278.231 488.963 278.09 489.191C277.949 489.42 277.863 489.675 277.838 489.94L275.631 489.735L278.607 486.667Z" fill="#727A9C"/>
<path d="M463.523 543.743C463.523 543.743 513.034 533.746 596.109 546.418L563.565 523.445L504.356 511.789L462.466 522.491L463.523 543.743Z" fill="white"/>
<path opacity="0.1" d="M463.523 543.743C463.523 543.743 513.034 533.746 596.109 546.418L563.565 523.445L504.356 511.789L462.466 522.491L463.523 543.743Z" fill="black"/>
<path d="M457.719 554.551C457.719 554.551 482.651 489.681 610.703 554.756L564.743 526.308C564.743 526.308 454.641 497.048 441.92 530.767L457.719 554.551Z" fill="white"/>
<path opacity="0.1" d="M457.719 554.507C457.719 554.507 482.651 485.151 610.703 555.755L564.743 524.899C564.743 524.899 454.604 489.904 441.855 526.531L457.719 554.507Z" fill="black"/>
<path d="M457.719 554.534C457.719 554.534 482.651 484.152 610.703 554.756L564.743 523.9C564.743 523.9 454.641 489.904 441.92 526.575L457.719 554.534Z" fill="white"/>
<path opacity="0.1" d="M457.719 554.551C457.719 554.551 482.651 476.331 610.703 555.755L564.706 521.037C564.706 521.037 454.604 485.365 441.883 526.531L457.719 554.551Z" fill="black"/>
<path d="M457.719 554.507C457.719 554.507 482.651 475.332 610.703 554.756L564.706 520.038C564.706 520.038 454.604 484.366 441.883 525.532L457.719 554.507Z" fill="white"/>
<path d="M841.885 547.051C841.885 547.051 811.149 578.719 838.816 594.103C838.816 594.103 842.432 598.294 847.597 596.101C847.597 596.101 845.854 594.611 849.349 591.74C850.585 590.709 851.69 589.542 852.641 588.262C853.93 586.533 854.6 584.449 854.55 582.322V582.322C854.55 582.322 858.574 569.757 845.789 553.446C845.789 553.446 844.63 547.988 843.647 547.39L841.31 554.997C841.31 554.997 847.179 556.433 849.386 560.732C849.386 560.732 841.653 554.89 840.902 556.112C840.754 556.362 839.855 560.205 839.855 560.205C839.855 560.205 850.054 562.738 853.243 569.48C853.243 569.48 845.001 561.338 839.502 561.659L838.501 567.527C838.501 567.527 849.414 569.703 853.336 577.248C853.336 577.248 844.416 569.016 838.353 568.829L838.177 574.724C838.177 574.724 848.774 577.043 852.01 583.339C852.01 583.339 840.708 574.84 838.232 576.08C838.232 576.08 838.408 581.511 839.159 582.929C839.159 582.929 846.725 584.712 848.264 588.583C848.264 588.583 840.087 583.669 839.382 584.418C839.382 584.418 841.579 591.428 844.639 594.415C844.639 594.415 839.781 590.322 838.26 584.801C838.26 584.801 836.202 588.253 836.721 591.642C836.721 591.642 833.689 588.413 837.75 583.098C837.75 583.098 836.267 577.569 836.637 576.695C836.637 576.695 831.863 581.395 830.639 585.613C830.639 585.613 829.711 580.333 836.628 575.17V569.23C836.628 569.23 829.971 575.125 828.599 578.773C828.599 578.773 828.506 573.244 836.767 567.741L837.694 561.971C837.694 561.971 831.557 566.626 829.118 570.372C829.118 570.372 830.175 565.217 838.019 560.33L839.104 556.549C839.104 556.549 834.69 560.027 833.541 561.133C832.391 562.239 831.955 562.025 831.955 562.025C833.761 559.034 836.393 556.584 839.558 554.944C839.558 554.944 842.395 547.256 841.885 547.051Z" fill="#DA88FF"/>
<path d="M979.284 31.7661C979.284 31.7661 938.219 49.6022 957.578 74.0288C957.578 74.0288 959.238 79.2458 964.875 79.1388C964.875 79.1388 963.865 77.1144 968.241 75.7589C969.796 75.27 971.284 74.6023 972.673 73.7701C974.556 72.654 976.01 70.9795 976.817 68.999V68.999C976.817 68.999 985.57 58.9037 980.313 39.1146C980.313 39.1146 981.435 33.6478 980.767 32.7293L975.556 38.8827C975.556 38.8827 980.396 42.3786 980.711 47.1676C980.711 47.1676 975.927 38.9095 974.74 39.7656C974.499 39.935 972.135 43.1455 972.135 43.1455C972.135 43.1455 980.48 49.2633 980.767 56.6742C980.767 56.6742 976.428 46.0974 971.217 44.3495L967.944 49.3971C967.944 49.3971 977.142 55.4525 977.754 63.8711C977.754 63.8711 972.821 52.9732 967.304 50.5475L964.773 55.8984C964.773 55.8984 973.628 61.9716 974.045 68.9811C974.045 68.9811 967.026 56.9418 964.245 57.1736C964.245 57.1736 962.233 62.2391 962.39 63.8354C962.39 63.8354 968.64 68.2945 968.528 72.4324C968.528 72.4324 962.965 64.8699 962.038 65.298C962.038 65.298 961.25 72.5751 962.882 76.4723C962.882 76.4723 960.035 70.8896 960.851 65.2356C960.851 65.2356 957.56 67.6613 956.688 70.9788C956.688 70.9788 955.186 66.8676 961.064 63.4698C961.064 63.4698 961.908 57.8247 962.604 57.1558C962.604 57.1558 956.308 59.7153 953.508 63.122C953.508 63.122 954.76 57.9049 963.225 55.7111L965.635 50.2532C965.635 50.2532 957.133 53.214 954.398 56.0678C954.398 56.0678 956.531 50.931 966.359 48.9334L969.52 43.9571C969.52 43.9571 961.992 45.9815 958.237 48.5231C958.237 48.5231 961.287 44.1711 970.485 42.5659L972.997 39.4802C972.997 39.4802 967.527 41.0498 965.997 41.6384C964.467 42.227 964.143 41.8792 964.143 41.8792C967.025 39.7818 970.456 38.4972 974.054 38.1693C974.054 38.1693 979.617 32.1228 979.284 31.7661Z" fill="#DA88FF"/>
<path d="M589.526 42.8066C589.526 42.8066 527.832 59.7509 557.826 84.9712C557.826 84.9712 560.487 90.322 569.026 90.322C569.026 90.322 567.432 88.253 574.033 86.9956C576.306 86.5559 578.534 85.9232 580.69 85.105C583.233 84.2477 585.398 82.5841 586.828 80.3873C586.828 80.3873 599.809 70.3991 591.288 50.2621C591.288 50.2621 592.836 44.7686 591.798 43.8233L584.084 49.9054C584.084 49.9054 591.501 53.5707 592.122 58.4132C592.122 58.4132 584.64 49.95 582.851 50.7794C582.489 50.9488 578.994 54.1237 578.994 54.1237C578.994 54.1237 591.863 60.5268 592.447 68.0269C592.447 68.0269 585.586 57.2271 577.612 55.3276L572.791 60.3395C572.791 60.3395 586.884 66.6981 588.043 75.2238C588.043 75.2238 580.273 64.0851 571.854 61.49L568.146 66.8408C568.146 66.8408 581.719 73.2083 582.61 80.307C582.61 80.307 571.641 67.9556 567.432 68.1072C567.432 68.1072 564.53 73.1904 564.789 74.8046C564.789 74.8046 574.376 79.5133 574.33 83.6513C574.33 83.6513 565.67 75.8569 564.242 76.2672C564.242 76.2672 563.259 83.6067 565.837 87.5842C565.837 87.5842 561.368 81.8677 562.443 76.178C562.443 76.178 557.539 78.5413 556.306 81.8677C556.306 81.8677 553.913 77.6851 562.722 74.4033C562.722 74.4033 563.844 68.7136 564.873 68.0537C564.873 68.0537 555.415 70.4794 551.271 73.8504C551.271 73.8504 553.014 68.6066 565.772 66.6089L569.277 61.1511C569.277 61.1511 556.482 63.9335 552.421 66.7427C552.421 66.7427 555.508 61.6059 570.343 59.8223L574.979 54.8728C574.979 54.8728 563.63 56.7188 558.012 59.198C558.012 59.198 562.508 54.8728 576.388 53.4905L580.097 50.4405C580.097 50.4405 571.854 51.8852 569.555 52.4381C567.255 52.9911 566.773 52.6343 566.773 52.6343C571.407 50.4764 576.462 49.285 581.608 49.1385C581.608 49.1385 590.064 43.1812 589.526 42.8066Z" fill="#DA88FF"/>
<path d="M771.54 704.009C771.54 704.009 802.601 672.626 775.091 656.984C775.091 656.984 771.512 652.757 766.33 654.897C766.33 654.897 768.063 656.405 764.54 659.249C763.295 660.268 762.177 661.423 761.212 662.692C759.902 664.406 759.212 666.486 759.246 668.613V668.613C759.246 668.613 755.083 681.143 767.711 697.57C767.711 697.57 768.814 703.037 769.788 703.652L772.208 696.063C772.208 696.063 766.348 694.574 764.188 690.257C764.188 690.257 771.855 696.161 772.616 694.948C772.773 694.699 773.71 690.873 773.71 690.873C773.71 690.873 763.511 688.197 760.414 681.473C760.414 681.473 768.573 689.696 774.081 689.419L775.138 683.56C775.138 683.56 764.253 681.286 760.386 673.75C760.386 673.75 769.222 682.062 775.286 682.311L775.518 676.408C775.518 676.408 764.939 673.946 761.731 667.615C761.731 667.615 772.95 676.229 775.434 675.008C775.434 675.008 775.314 669.585 774.507 668.159C774.507 668.159 766.96 666.25 765.458 662.415C765.458 662.415 773.589 667.409 774.294 666.66C774.294 666.66 772.171 659.633 769.139 656.619C769.139 656.619 773.96 660.757 775.425 666.286C775.425 666.286 777.521 662.852 777.029 659.463C777.029 659.463 780.033 662.727 775.917 667.998C775.917 667.998 777.344 673.545 776.964 674.41C776.964 674.41 781.786 669.755 783.046 665.59C783.046 665.59 783.974 670.879 776.955 675.971L776.862 681.91C776.862 681.91 783.575 676.078 784.984 672.439C784.984 672.439 784.984 677.977 776.705 683.399L775.777 689.161C775.777 689.161 781.962 684.559 784.437 680.84C784.437 680.84 783.325 685.977 775.434 690.793L774.313 694.565C774.313 694.565 778.763 691.131 779.95 690.034C781.137 688.938 781.544 689.143 781.544 689.143C779.71 692.118 777.052 694.545 773.867 696.152C773.867 696.152 771.077 703.795 771.54 704.009Z" fill="#DA88FF"/>
<path d="M468.604 1.10579C468.604 1.10579 473.898 44.1265 503.976 33.7459C503.976 33.7459 509.641 33.7904 511.236 28.5823C511.236 28.5823 508.918 28.9034 508.899 24.48C508.878 22.9065 508.663 21.3409 508.259 19.8159C507.726 17.7526 506.504 15.9141 504.782 14.581V14.581C504.782 14.581 497.402 3.50474 476.161 2.41674C476.161 2.41674 471.08 -0.258673 469.967 0.0802127L474.501 6.70633C474.501 6.70633 479.424 3.31747 484.264 4.47681C484.264 4.47681 474.64 6.38528 475.131 7.72298C475.224 7.99944 477.69 11.1297 477.69 11.1297C477.69 11.1297 486.359 5.24376 493.777 7.25032C493.777 7.25032 481.992 8.03511 478.692 12.289L482.651 16.8194C482.651 16.8194 491.422 10.2022 499.961 12.1731C499.961 12.1731 487.667 13.4216 483.596 17.7469L488.214 21.6887C488.214 21.6887 496.892 15.3925 503.976 17.0869C503.976 17.0869 489.92 19.905 489.308 22.518C489.308 22.518 493.731 25.8891 495.362 26.2458C495.362 26.2458 501.704 21.867 505.728 23.2047C505.728 23.2047 496.549 26.0407 496.688 27.0395C496.688 27.0395 503.67 29.9468 508.018 29.6257C508.018 29.6257 501.63 30.5175 496.271 28.1096C496.271 28.1096 497.68 31.8463 500.712 33.6567C500.712 33.6567 496.188 33.7905 494.583 27.414C494.583 27.414 489.243 24.9348 488.789 24.1054C488.789 24.1054 489.438 30.6424 491.969 34.2364C491.969 34.2364 487.166 31.5609 487.537 23.0977L482.901 19.2362C482.901 19.2362 483.281 27.9313 485.284 31.3023C485.284 31.3023 480.833 27.7975 481.798 18.1749L477.82 13.7783C477.82 13.7783 477.551 21.2873 478.942 25.4967C478.942 25.4967 475.539 21.3944 476.726 12.4763L474.417 9.23905C474.417 9.23905 474.334 14.7237 474.417 16.3111C474.501 17.8985 474.102 18.0501 474.102 18.0501C472.884 14.7825 472.633 11.2533 473.379 7.85675C473.379 7.85675 469.068 0.891753 468.604 1.10579Z" fill="#DA88FF"/>
<path d="M693.407 606.436C693.407 606.436 649.997 594.843 648.606 625.557C648.606 625.557 646.418 630.586 650.822 633.975C650.822 633.975 651.388 631.799 655.653 633.449C657.174 634.028 658.761 634.432 660.381 634.653C662.572 634.957 664.806 634.562 666.742 633.529V633.529C666.742 633.529 680.186 631.157 689.309 612.715C689.309 612.715 693.806 609.21 693.945 608.086L685.851 609.611C685.851 609.611 687.241 615.283 684.293 619.154C684.293 619.154 686.147 609.861 684.636 609.79C684.33 609.79 680.38 610.78 680.38 610.78C680.38 610.78 682.754 620.643 678.016 626.484C678.016 626.484 681.725 615.693 678.878 611.145L673 613.009C673 613.009 676.041 623.318 670.905 630.167C670.905 630.167 674.372 618.761 671.739 613.499L666.232 616.077C666.232 616.077 669.013 626.19 664.683 631.862C664.683 631.862 667.298 618.288 665.008 616.746C665.008 616.746 660.094 619.421 659.139 620.723C659.139 620.723 660.993 628.027 658.137 631.104C658.137 631.104 658.879 621.856 657.869 621.606C657.869 621.606 652.417 626.716 651.082 630.711C651.082 630.711 652.611 624.674 656.997 620.83C656.997 620.83 652.862 620.67 649.978 622.676C649.978 622.676 651.554 618.601 658.323 619.608C658.323 619.608 662.736 615.783 663.71 615.702C663.71 615.702 657.22 613.794 652.751 614.686C652.751 614.686 657.182 611.439 665.147 614.971L670.636 612.296C670.636 612.296 662.124 609.344 658.128 609.852C658.128 609.852 663.181 607.177 672.036 611.716L677.766 609.834C677.766 609.834 670.645 606.757 666.065 606.401C666.065 606.401 671.303 604.929 679.435 609.362L683.422 608.532C683.422 608.532 678.174 606.374 676.607 605.857C675.04 605.34 675.049 604.965 675.049 604.965C678.64 605.123 682.116 606.234 685.09 608.175C685.09 608.175 693.435 606.927 693.407 606.436Z" fill="#DA88FF"/>
</g>
<defs>
<linearGradient id="paint0_linear" x1="486.671" y1="52.4858" x2="486.671" y2="690.101" gradientUnits="userSpaceOnUse">
<stop stop-color="#8F4AFF"/>
<stop offset="1" stop-color="white" stop-opacity="0"/>
</linearGradient>
<linearGradient id="paint1_linear" x1="493.638" y1="534.441" x2="493.638" y2="207.14" gradientUnits="userSpaceOnUse">
<stop stop-color="#808080" stop-opacity="0.25"/>
<stop offset="0.54" stop-color="#808080" stop-opacity="0.12"/>
<stop offset="1" stop-color="#808080" stop-opacity="0.1"/>
</linearGradient>
<clipPath id="clip0">
<rect width="982" height="704" fill="white"/>
</clipPath>
</defs>
</svg>
