<svg width="1029" height="683" viewBox="0 0 1029 683" fill="none" xmlns="http://www.w3.org/2000/svg">
<g clip-path="url(#clip0)">
<path d="M973.577 555.721C969.136 555.721 964.873 557.814 960.901 561.616C950.098 523.88 933.373 499.629 914.583 499.629C895.794 499.629 879.069 523.88 868.266 561.616C864.294 557.814 860.031 555.721 855.59 555.721C834.243 555.721 816.939 603.437 816.939 662.297H1012.23C1012.23 603.437 994.923 555.721 973.577 555.721Z" fill="#D0CDE1"/>
<path d="M395.845 495.414C391.252 495.505 386.809 497.02 383.169 499.737C372.365 472.063 355.641 454.28 336.851 454.28C318.062 454.28 301.337 472.063 290.534 499.737C286.893 497.02 282.451 495.505 277.858 495.414C256.511 495.414 239.207 530.405 239.207 573.569H434.496C434.496 530.405 417.191 495.414 395.845 495.414Z" fill="#D0CDE1"/>
<path d="M1029 683H1.71631C2.6419 602.1 232.26 536.599 515.358 536.599C798.457 536.599 1028.07 602.1 1029 683Z" fill="#3F3D56"/>
<path d="M131.391 364.916C203.956 364.916 262.781 307.899 262.781 237.564C262.781 167.23 203.956 110.213 131.391 110.213C58.8256 110.213 0 167.23 0 237.564C0 307.899 58.8256 364.916 131.391 364.916Z" fill="#BFA1FF"/>
<path d="M135.629 602.159H128.212V252.385C128.212 242.542 129.457 232.735 131.921 223.186V223.186C134.384 232.735 135.629 242.542 135.629 252.385L135.629 602.159Z" fill="#3F3D56"/>
<path d="M132.337 345.87L128.43 339.759L183.311 306.797C187.118 304.51 191.523 303.332 196.002 303.403V303.403C194.074 307.322 191.025 310.621 187.218 312.908L132.337 345.87Z" fill="#3F3D56"/>
<path d="M129.752 312.65L133.659 306.539L95.8915 283.856C92.8965 282.057 89.3135 281.414 85.8525 282.055V282.055C86.801 285.344 88.9896 288.168 91.9846 289.967L129.752 312.65Z" fill="#3F3D56"/>
<path d="M129.752 452.326L133.659 446.215L95.8915 423.531C92.8965 421.732 89.3135 421.09 85.8525 421.73V421.73C86.801 425.02 88.9896 427.843 91.9846 429.642L129.752 452.326Z" fill="#3F3D56"/>
<path d="M828.126 361.608C897.783 361.608 954.251 306.876 954.251 239.361C954.251 171.846 897.783 117.114 828.126 117.114C758.47 117.114 702.002 171.846 702.002 239.361C702.002 306.876 758.47 361.608 828.126 361.608Z" fill="#D48FFF"/>
<path d="M824.058 589.343H831.178V253.588C831.178 244.139 829.982 234.726 827.618 225.559C825.254 234.726 824.058 244.139 824.058 253.588V589.343Z" fill="#3F3D56"/>
<path d="M827.218 343.326L830.968 337.46L778.288 305.818C774.633 303.623 770.404 302.493 766.105 302.561V302.561C767.956 306.322 770.882 309.489 774.537 311.685L827.218 343.326Z" fill="#3F3D56"/>
<path d="M829.7 311.437L825.949 305.571L862.203 283.797C865.078 282.07 868.517 281.453 871.839 282.068C870.929 285.226 868.828 287.936 865.953 289.663L829.7 311.437Z" fill="#3F3D56"/>
<path d="M829.7 445.515L825.949 439.649L862.203 417.874C865.078 416.148 868.517 415.531 871.839 416.146V416.146C870.929 419.303 868.828 422.014 865.953 423.741L829.7 445.515Z" fill="#3F3D56"/>
<path d="M150.822 670.728C149.685 670.73 148.561 670.961 147.521 671.406C144.708 667.061 140.352 664.269 135.459 664.269C130.566 664.269 126.211 667.061 123.397 671.406C122.357 670.961 121.233 670.73 120.096 670.728C114.537 670.728 110.031 676.222 110.031 683H160.887C160.887 676.222 156.381 670.728 150.822 670.728Z" fill="#D0CDE1"/>
<path d="M466.133 662.331C464.934 662.356 463.776 662.757 462.832 663.474C460.019 656.155 455.663 651.452 450.77 651.452C445.877 651.452 441.522 656.155 438.708 663.474C437.765 662.757 436.606 662.356 435.407 662.331C429.848 662.331 425.342 671.585 425.342 683H476.199C476.199 671.585 471.692 662.331 466.133 662.331Z" fill="#D0CDE1"/>
<path d="M904.517 662.331C903.318 662.356 902.16 662.757 901.216 663.474C898.403 656.155 894.047 651.452 889.154 651.452C884.261 651.452 879.906 656.155 877.092 663.474C876.149 662.757 874.99 662.356 873.791 662.331C868.232 662.331 863.726 671.585 863.726 683H914.583C914.583 671.585 910.076 662.331 904.517 662.331Z" fill="#D663FF"/>
<path d="M632.008 475.255L630.393 482.693L628.373 490.131L621.911 578.609L644.126 580.175L654.223 483.476L652.608 478.387L632.008 475.255Z" fill="#2F2E41"/>
<path d="M613.024 566.473L603.734 580.175C603.734 580.175 577.884 600.533 596.464 601.707C615.044 602.881 621.91 589.571 621.91 589.571C621.91 589.571 628.373 587.613 629.181 585.656C629.989 583.698 627.565 566.473 627.565 566.473H613.024Z" fill="#2F2E41"/>
<path d="M623.526 577.043C623.526 577.043 614.236 599.75 615.448 603.665C616.659 607.579 618.679 607.579 618.275 611.103C617.871 614.626 616.659 622.848 632.008 623.239C647.357 623.631 640.086 603.664 640.086 603.664L638.067 577.043H623.526Z" fill="#2F2E41"/>
<path d="M595.252 409.093C595.252 409.093 589.598 418.488 590.405 424.361C591.213 430.233 602.927 493.263 602.927 493.263L612.217 569.996L632.816 568.43L624.738 497.57L626.757 441.195L630.392 482.693L654.223 483.476L668.36 424.361C668.36 424.361 657.858 407.918 655.839 406.744C653.819 405.569 595.252 409.093 595.252 409.093Z" fill="#2F2E41"/>
<path d="M623.324 290.275C632.916 290.275 640.692 282.738 640.692 273.44C640.692 264.143 632.916 256.606 623.324 256.606C613.732 256.606 605.956 264.143 605.956 273.44C605.956 282.738 613.732 290.275 623.324 290.275Z" fill="#FFB8B8"/>
<path d="M618.275 284.206L620.698 306.521L647.356 302.606L632.816 276.376L618.275 284.206Z" fill="#FFB8B8"/>
<path d="M645.337 295.951C645.337 295.951 631.604 305.738 618.275 300.258L598.08 349.977V412.224C598.08 412.224 628.373 420.837 645.337 410.659C645.337 410.659 657.454 408.31 659.474 408.701C661.493 409.093 652.203 302.607 652.203 302.607L645.337 295.951Z" fill="#D0CDE1"/>
<path d="M632.816 298.3L642.106 311.219C643.913 314.448 644.485 318.192 643.721 321.79C642.51 328.054 641.298 409.876 652.607 413.008C663.917 416.14 671.187 415.748 671.187 415.748C671.187 415.748 661.089 368.769 664.725 360.548L676.034 311.219L646.145 294.777C646.145 294.777 644.276 287.338 641.171 291.449C638.865 294.231 636.028 296.557 632.816 298.3V298.3Z" fill="#575A89"/>
<path d="M605.754 371.118L619.551 295.951L605.754 302.998C605.754 302.998 590.001 309.262 586.77 316.7C583.539 324.139 570.614 359.765 570.614 359.765C570.614 359.765 573.845 381.297 585.962 372.292C598.08 363.288 595.252 358.982 595.252 358.982C595.252 358.982 584.751 400.48 586.366 401.654C587.982 402.829 588.79 413.791 588.79 413.791L601.311 411.442L605.754 371.118Z" fill="#575A89"/>
<path d="M590.001 329.228L595.252 321.79C595.252 321.79 607.128 298.692 615.731 306.522C624.334 314.351 599.695 332.36 599.695 332.36L590.001 329.228Z" fill="#FFB8B8"/>
<path d="M661.089 410.268L657.858 414.286L665.936 424.361L669.571 417.314L661.089 410.268Z" fill="#FFB8B8"/>
<path d="M616.361 259.495C614.58 259.513 613.02 260.582 611.557 261.566C610.093 262.549 608.434 263.53 606.665 263.336C605.838 263.193 605.059 262.861 604.392 262.367C603.725 261.873 603.189 261.232 602.829 260.497C602.124 259.022 601.67 257.447 601.483 255.831L603.498 256.52L601.866 254.722L619.216 249.613C624.465 248.067 630.398 246.577 635.207 249.137C637.693 250.622 639.704 252.746 641.017 255.275C643.751 260.118 645.145 265.566 645.065 271.087C644.984 276.608 643.43 282.014 640.555 286.781C637.895 286.561 636.16 283.86 635.729 281.306C635.297 278.751 635.717 276.105 635.185 273.569C634.652 271.032 632.655 268.434 629.986 268.514L628.58 271.419C629.48 269.56 624.138 265.021 622.864 264.177C621.746 263.558 620.702 262.821 619.752 261.979C618.649 260.861 618.372 259.476 616.361 259.495Z" fill="#2F2E41"/>
<path d="M591.617 324.922L601.311 330.794L591.617 369.943C591.617 369.943 576.268 388.343 570.614 369.943C565.88 354.542 583.787 333.38 589.748 326.892C590.909 325.629 591.617 324.922 591.617 324.922Z" fill="#575A89"/>
<path d="M666.744 310.437H676.034C676.034 310.437 684.112 325.705 684.92 333.926C685.728 342.147 685.728 374.641 685.728 374.641L669.975 420.054L657.858 411.442L667.956 384.429C667.956 384.429 666.744 378.556 667.956 375.816C669.168 373.075 664.321 358.982 663.513 358.199C662.705 357.416 666.744 310.437 666.744 310.437Z" fill="#575A89"/>
<path d="M447.273 128.439H556.57V118.999L447.273 118.999V128.439Z" fill="#3F3D56"/>
<path d="M447.273 163.214H556.57V153.774H447.273V163.214Z" fill="#3F3D56"/>
<path d="M447.273 194.367H556.57V184.927H447.273V194.367Z" fill="#3F3D56"/>
<path d="M269.831 214.657L323.44 161.713H384.043V159.742H322.591L322.292 160.034L268.384 213.271L269.831 214.657Z" fill="#3F3D56"/>
<path d="M412.89 138.209C419.495 138.209 424.849 133.019 424.849 126.617C424.849 120.215 419.495 115.025 412.89 115.025C406.285 115.025 400.931 120.215 400.931 126.617C400.931 133.019 406.285 138.209 412.89 138.209Z" fill="#7544FF"/>
<path d="M412.89 172.984C419.495 172.984 424.849 167.794 424.849 161.392C424.849 154.99 419.495 149.8 412.89 149.8C406.285 149.8 400.931 154.99 400.931 161.392C400.931 167.794 406.285 172.984 412.89 172.984Z" fill="#BD00FF"/>
<path d="M412.89 204.137C419.495 204.137 424.849 198.947 424.849 192.545C424.849 186.143 419.495 180.953 412.89 180.953C406.285 180.953 400.931 186.143 400.931 192.545C400.931 198.947 406.285 204.137 412.89 204.137Z" fill="#EC3AFC"/>
<path d="M406.163 123.719C406.163 121.283 406.908 118.902 408.305 116.876C409.701 114.851 411.685 113.272 414.007 112.34C416.329 111.408 418.884 111.164 421.349 111.639C423.814 112.114 426.078 113.287 427.855 115.01C429.632 116.732 430.842 118.927 431.333 121.316C431.823 123.705 431.571 126.182 430.61 128.432C429.648 130.683 428.019 132.606 425.929 133.959C423.84 135.313 421.383 136.035 418.87 136.035C415.501 136.031 412.271 134.733 409.889 132.424C407.507 130.115 406.167 126.984 406.163 123.719V123.719ZM407.658 123.719C407.658 125.868 408.316 127.969 409.548 129.756C410.78 131.543 412.531 132.936 414.579 133.759C416.628 134.581 418.882 134.797 421.057 134.377C423.232 133.958 425.23 132.923 426.798 131.403C428.366 129.883 429.434 127.947 429.866 125.839C430.299 123.731 430.077 121.546 429.228 119.56C428.38 117.574 426.943 115.877 425.099 114.683C423.255 113.489 421.087 112.852 418.87 112.852C415.897 112.855 413.048 114.001 410.946 116.038C408.844 118.075 407.661 120.838 407.658 123.719V123.719Z" fill="#3F3D56"/>
<path d="M406.163 158.494C406.163 156.058 406.908 153.677 408.305 151.652C409.701 149.626 411.685 148.048 414.007 147.116C416.329 146.183 418.884 145.939 421.349 146.415C423.814 146.89 426.078 148.063 427.855 149.785C429.632 151.508 430.842 153.702 431.333 156.091C431.823 158.481 431.571 160.957 430.61 163.207C429.648 165.458 428.019 167.381 425.929 168.735C423.84 170.088 421.383 170.81 418.87 170.81C415.501 170.807 412.271 169.508 409.889 167.199C407.507 164.89 406.167 161.76 406.163 158.494V158.494ZM407.658 158.494C407.658 160.644 408.316 162.745 409.548 164.532C410.78 166.319 412.531 167.712 414.579 168.534C416.628 169.357 418.882 169.572 421.057 169.153C423.232 168.733 425.23 167.698 426.798 166.179C428.366 164.659 429.434 162.722 429.866 160.614C430.299 158.506 430.077 156.321 429.228 154.335C428.38 152.35 426.943 150.653 425.099 149.458C423.255 148.264 421.087 147.627 418.87 147.627C415.897 147.63 413.048 148.776 410.946 150.814C408.844 152.851 407.661 155.613 407.658 158.494V158.494Z" fill="#3F3D56"/>
<path d="M406.163 189.647C406.163 187.211 406.908 184.83 408.305 182.804C409.701 180.779 411.685 179.2 414.007 178.268C416.329 177.336 418.884 177.092 421.349 177.567C423.814 178.042 426.078 179.215 427.855 180.938C429.632 182.66 430.842 184.855 431.333 187.244C431.823 189.633 431.571 192.11 430.61 194.36C429.648 196.611 428.019 198.534 425.929 199.887C423.84 201.241 421.383 201.963 418.87 201.963C415.501 201.959 412.271 200.661 409.889 198.352C407.507 196.043 406.167 192.912 406.163 189.647V189.647ZM407.658 189.647C407.658 191.796 408.316 193.897 409.548 195.684C410.78 197.471 412.531 198.864 414.579 199.687C416.628 200.509 418.882 200.725 421.057 200.305C423.232 199.886 425.23 198.851 426.798 197.331C428.366 195.811 429.434 193.875 429.866 191.767C430.299 189.659 430.077 187.474 429.228 185.488C428.38 183.502 426.943 181.805 425.099 180.611C423.255 179.417 421.087 178.78 418.87 178.78C415.897 178.783 413.048 179.929 410.946 181.966C408.844 184.003 407.661 186.766 407.658 189.647V189.647Z" fill="#3F3D56"/>
<path d="M654.768 7.59619H545.472V17.0361H654.768V7.59619Z" fill="#3F3D56"/>
<path d="M654.768 42.3713H545.472V51.8112H654.768V42.3713Z" fill="#3F3D56"/>
<path d="M654.768 73.5242H545.472V82.9641H654.768V73.5242Z" fill="#3F3D56"/>
<path d="M822.039 113.113L778.602 50.3106H717.999V48.3389H779.451L779.75 48.6317L823.487 111.727L822.039 113.113Z" fill="#3F3D56"/>
<path d="M689.152 26.8058C695.757 26.8058 701.111 21.616 701.111 15.214C701.111 8.81211 695.757 3.62231 689.152 3.62231C682.547 3.62231 677.192 8.81211 677.192 15.214C677.192 21.616 682.547 26.8058 689.152 26.8058Z" fill="#695CFF"/>
<path d="M689.152 61.5812C695.757 61.5812 701.111 56.3914 701.111 49.9894C701.111 43.5875 695.757 38.3977 689.152 38.3977C682.547 38.3977 677.192 43.5875 677.192 49.9894C677.192 56.3914 682.547 61.5812 689.152 61.5812Z" fill="#AD00FF"/>
<path d="M689.152 92.7338C695.757 92.7338 701.111 87.544 701.111 81.142C701.111 74.7401 695.757 69.5503 689.152 69.5503C682.547 69.5503 677.192 74.7401 677.192 81.142C677.192 87.544 682.547 92.7338 689.152 92.7338Z" fill="#FF05F5"/>
<path d="M683.172 24.6324C680.659 24.6324 678.202 23.9101 676.112 22.5568C674.023 21.2035 672.394 19.2799 671.432 17.0294C670.471 14.7789 670.219 12.3026 670.709 9.91345C671.2 7.52433 672.41 5.3298 674.187 3.60734C675.964 1.88489 678.228 0.711882 680.693 0.236658C683.158 -0.238566 685.713 0.00533783 688.035 0.937523C690.357 1.86971 692.341 3.44831 693.737 5.4737C695.134 7.49909 695.879 9.8803 695.879 12.3162C695.875 15.5816 694.535 18.7121 692.153 21.0211C689.771 23.33 686.541 24.6288 683.172 24.6324V24.6324ZM683.172 1.44897C680.954 1.44897 678.787 2.08632 676.943 3.28043C675.099 4.47454 673.662 6.17177 672.813 8.1575C671.965 10.1432 671.743 12.3283 672.175 14.4363C672.608 16.5444 673.676 18.4807 675.244 20.0005C676.812 21.5203 678.81 22.5553 680.985 22.9747C683.16 23.394 685.414 23.1788 687.463 22.3563C689.511 21.5337 691.262 20.1409 692.494 18.3537C693.726 16.5666 694.384 14.4656 694.384 12.3162C694.381 9.43505 693.198 6.67281 691.096 4.63552C688.994 2.59822 686.144 1.45223 683.172 1.44897V1.44897Z" fill="#3F3D56"/>
<path d="M683.172 59.4076C680.659 59.4076 678.202 58.6853 676.112 57.3319C674.023 55.9786 672.394 54.0551 671.432 51.8046C670.471 49.5541 670.219 47.0777 670.709 44.6886C671.2 42.2995 672.41 40.1049 674.187 38.3825C675.964 36.66 678.228 35.487 680.693 35.0118C683.158 34.5366 685.713 34.7805 688.035 35.7127C690.357 36.6449 692.341 38.2235 693.737 40.2488C695.134 42.2742 695.879 44.6555 695.879 47.0914C695.875 50.3567 694.535 53.4873 692.153 55.7962C689.771 58.1052 686.541 59.4039 683.172 59.4076V59.4076ZM683.172 36.2241C680.954 36.2241 678.787 36.8615 676.943 38.0556C675.099 39.2497 673.662 40.9469 672.813 42.9327C671.965 44.9184 671.743 47.1034 672.175 49.2115C672.608 51.3195 673.676 53.2559 675.244 54.7757C676.812 56.2955 678.81 57.3305 680.985 57.7498C683.16 58.1691 685.414 57.9539 687.463 57.1314C689.511 56.3089 691.262 54.916 692.494 53.1289C693.726 51.3418 694.384 49.2407 694.384 47.0914C694.381 44.2102 693.198 41.448 691.096 39.4107C688.994 37.3734 686.144 36.2274 683.172 36.2241V36.2241Z" fill="#3F3D56"/>
<path d="M683.172 90.5604C680.659 90.5604 678.202 89.8381 676.112 88.4847C674.023 87.1314 672.394 85.2079 671.432 82.9574C670.471 80.7069 670.219 78.2305 670.709 75.8414C671.2 73.4523 672.41 71.2578 674.187 69.5353C675.964 67.8129 678.228 66.6399 680.693 66.1646C683.158 65.6894 685.713 65.9333 688.035 66.8655C690.357 67.7977 692.341 69.3763 693.737 71.4017C695.134 73.4271 695.879 75.8083 695.879 78.2442C695.875 81.5095 694.535 84.6401 692.153 86.949C689.771 89.258 686.541 90.5568 683.172 90.5604V90.5604ZM683.172 67.3769C680.954 67.3769 678.787 68.0143 676.943 69.2084C675.099 70.4025 673.662 72.0997 672.813 74.0855C671.965 76.0712 671.743 78.2563 672.175 80.3643C672.608 82.4723 673.676 84.4087 675.244 85.9285C676.812 87.4483 678.81 88.4833 680.985 88.9026C683.16 89.3219 685.414 89.1067 687.463 88.2842C689.511 87.4617 691.262 86.0688 692.494 84.2817C693.726 82.4946 694.384 80.3935 694.384 78.2442C694.381 75.363 693.198 72.6008 691.096 70.5635C688.994 68.5262 686.144 67.3802 683.172 67.3769V67.3769Z" fill="#3F3D56"/>
<path d="M462.208 378.436H538.543V371.843H462.208V378.436Z" fill="#3F3D56"/>
<path d="M462.208 402.724H538.543V396.131H462.208V402.724Z" fill="#3F3D56"/>
<path d="M462.208 424.481H538.543V417.888H462.208V424.481Z" fill="#3F3D56"/>
<path d="M338.278 438.652L375.72 401.676H418.047V400.298H375.127L374.918 400.502L337.268 437.684L338.278 438.652Z" fill="#3F3D56"/>
<path d="M438.194 385.259C442.807 385.259 446.546 381.635 446.546 377.163C446.546 372.692 442.807 369.067 438.194 369.067C433.581 369.067 429.841 372.692 429.841 377.163C429.841 381.635 433.581 385.259 438.194 385.259Z" fill="#5200FF"/>
<path d="M438.194 409.547C442.807 409.547 446.546 405.922 446.546 401.451C446.546 396.98 442.807 393.355 438.194 393.355C433.581 393.355 429.841 396.98 429.841 401.451C429.841 405.922 433.581 409.547 438.194 409.547Z" fill="#AD00FF"/>
<path d="M438.194 431.305C442.807 431.305 446.546 427.68 446.546 423.209C446.546 418.737 442.807 415.113 438.194 415.113C433.581 415.113 429.841 418.737 429.841 423.209C429.841 427.68 433.581 431.305 438.194 431.305Z" fill="#DB00FF"/>
<path d="M433.495 375.14C433.495 373.438 434.016 371.775 434.991 370.361C435.966 368.946 437.352 367.843 438.974 367.192C440.595 366.541 442.38 366.371 444.101 366.703C445.823 367.035 447.404 367.854 448.645 369.057C449.887 370.26 450.732 371.793 451.074 373.461C451.417 375.13 451.241 376.86 450.569 378.431C449.898 380.003 448.76 381.347 447.301 382.292C445.841 383.237 444.125 383.741 442.37 383.741C440.017 383.739 437.761 382.832 436.098 381.219C434.434 379.607 433.498 377.42 433.495 375.14V375.14ZM434.539 375.14C434.539 376.641 434.999 378.108 435.859 379.356C436.72 380.604 437.943 381.577 439.373 382.152C440.804 382.726 442.379 382.876 443.898 382.584C445.417 382.291 446.812 381.568 447.907 380.506C449.002 379.445 449.748 378.093 450.05 376.62C450.352 375.148 450.197 373.622 449.605 372.235C449.012 370.848 448.008 369.663 446.721 368.829C445.433 367.995 443.919 367.55 442.37 367.55C440.294 367.552 438.304 368.352 436.836 369.775C435.368 371.198 434.542 373.127 434.539 375.14V375.14Z" fill="#3F3D56"/>
<path d="M433.495 399.427C433.495 397.726 434.016 396.063 434.991 394.648C435.966 393.234 437.352 392.131 438.974 391.48C440.596 390.829 442.38 390.659 444.101 390.99C445.823 391.322 447.404 392.142 448.645 393.345C449.887 394.548 450.732 396.08 451.074 397.749C451.417 399.418 451.241 401.147 450.569 402.719C449.898 404.291 448.76 405.634 447.301 406.579C445.841 407.524 444.125 408.029 442.37 408.029C440.017 408.026 437.761 407.119 436.098 405.507C434.434 403.894 433.498 401.708 433.495 399.427ZM434.539 399.427C434.539 400.928 434.999 402.396 435.859 403.644C436.72 404.892 437.943 405.865 439.373 406.439C440.804 407.014 442.379 407.164 443.898 406.871C445.417 406.578 446.812 405.855 447.907 404.794C449.002 403.733 449.748 402.38 450.05 400.908C450.352 399.436 450.197 397.909 449.605 396.523C449.012 395.136 448.008 393.95 446.721 393.116C445.433 392.282 443.919 391.837 442.37 391.837C440.294 391.839 438.304 392.64 436.836 394.063C435.368 395.486 434.542 397.415 434.539 399.427V399.427Z" fill="#3F3D56"/>
<path d="M433.495 421.185C433.495 419.483 434.016 417.82 434.991 416.406C435.966 414.991 437.352 413.889 438.974 413.238C440.596 412.586 442.38 412.416 444.101 412.748C445.823 413.08 447.404 413.899 448.645 415.102C449.887 416.305 450.732 417.838 451.074 419.506C451.417 421.175 451.241 422.905 450.569 424.476C449.898 426.048 448.76 427.392 447.301 428.337C445.841 429.282 444.125 429.787 442.37 429.787C440.017 429.784 437.761 428.877 436.098 427.264C434.434 425.652 433.498 423.465 433.495 421.185ZM434.539 421.185C434.539 422.686 434.999 424.153 435.859 425.401C436.72 426.65 437.943 427.622 439.373 428.197C440.804 428.771 442.379 428.922 443.898 428.629C445.417 428.336 446.812 427.613 447.907 426.552C449.002 425.49 449.748 424.138 450.05 422.665C450.352 421.193 450.197 419.667 449.605 418.28C449.012 416.893 448.008 415.708 446.721 414.874C445.433 414.04 443.919 413.595 442.37 413.595C440.294 413.597 438.304 414.397 436.836 415.82C435.368 417.243 434.542 419.172 434.539 421.185V421.185Z" fill="#3F3D56"/>
</g>
<defs>
<clipPath id="clip0">
<rect width="1029" height="683" fill="white"/>
</clipPath>
</defs>
</svg>
