<svg width="976" height="730" viewBox="0 0 976 730" fill="none" xmlns="http://www.w3.org/2000/svg">
<g clip-path="url(#clip0)">
<path d="M113.74 632.416C113.74 632.416 -10.4015 570.762 33.2092 528.008C76.8199 485.253 113.74 632.416 113.74 632.416Z" fill="#E6E6E6"/>
<path d="M111.579 646.802C111.579 646.802 54.5191 444.543 138.542 454.216C222.565 463.889 111.579 646.802 111.579 646.802Z" fill="#E6E6E6"/>
<path d="M69.9761 628.864L72.371 662.698L72.409 663.282C72.4067 668.566 72.6541 673.846 73.1503 679.102C76.4004 713.613 90.3706 729.34 106.698 729.34C123.025 729.34 136.386 713.613 139.637 679.102C140.133 673.846 140.38 668.566 140.378 663.282L140.397 662.811L140.406 662.698L142.811 628.864H69.9761Z" fill="#E6E6E6"/>
<path d="M140.406 662.698L140.397 662.81L140.378 663.282C140.38 668.566 140.133 673.846 139.636 679.102H73.1501C72.654 673.846 72.4066 668.566 72.4088 663.282L72.3708 662.698H140.406Z" fill="white"/>
<path d="M923.42 653.107C923.42 653.107 827.308 605.374 861.072 572.273C894.836 539.172 923.42 653.107 923.42 653.107Z" fill="#E6E6E6"/>
<path d="M921.747 664.245C921.747 664.245 877.571 507.653 942.623 515.142C1007.67 522.631 921.747 664.245 921.747 664.245Z" fill="#E6E6E6"/>
<path d="M889.538 650.357L891.392 676.552L891.421 677.005C891.419 681.095 891.611 685.183 891.995 689.252C894.511 715.971 905.327 728.148 917.968 728.148C930.609 728.148 940.954 715.971 943.47 689.252C943.854 685.183 944.046 681.095 944.044 677.005L944.059 676.639L944.066 676.552L945.927 650.357H889.538Z" fill="#E6E6E6"/>
<path d="M944.066 676.552L944.059 676.64L944.044 677.005C944.046 681.095 943.854 685.183 943.47 689.253H891.995C891.611 685.183 891.42 681.095 891.421 677.005L891.392 676.552H944.066Z" fill="white"/>
<path d="M323.564 217.739V171.723H316.931V217.739C315.029 218.569 313.453 220.087 312.475 222.033C311.496 223.979 311.175 226.232 311.567 228.405C311.959 230.579 313.04 232.537 314.623 233.945C316.207 235.353 318.195 236.123 320.247 236.123C322.3 236.123 324.288 235.353 325.872 233.945C327.455 232.537 328.536 230.579 328.928 228.405C329.32 226.232 328.999 223.979 328.02 222.033C327.042 220.087 325.466 218.569 323.564 217.739Z" fill="#E6E6E6"/>
<path d="M339.039 682.123H293.718V88.2466H276.032V682.123H230.711C225.34 682.123 220.022 683.264 215.06 685.481C210.098 687.699 205.589 690.949 201.791 695.046C197.993 699.143 194.981 704.007 192.925 709.361C190.87 714.714 189.812 720.452 189.812 726.246V726.246H379.938V726.246C379.938 720.452 378.88 714.714 376.825 709.361C374.77 704.007 371.757 699.143 367.959 695.046C364.161 690.949 359.653 687.699 354.691 685.481C349.728 683.264 344.41 682.123 339.039 682.123V682.123Z" fill="#E6E6E6"/>
<path d="M189.904 176.493H379.846L368.231 19.8671C367.807 14.4663 365.524 9.4324 361.832 5.75575C358.141 2.07911 353.308 0.0258701 348.283 0H221.467C216.443 0.0258688 211.609 2.0791 207.918 5.75574C204.226 9.43237 201.944 14.4662 201.519 19.867L189.904 176.493Z" fill="url(#paint0_linear)"/>
<path d="M454.374 451.393C452.587 451.073 450.759 451.138 448.996 451.586C447.233 452.034 445.57 452.856 444.104 454.003C442.637 455.15 441.397 456.6 440.454 458.268C439.512 459.937 438.886 461.791 438.613 463.723L433.265 501.584L451.46 506.79L464.792 471.514C465.567 469.464 465.904 467.253 465.778 465.043C465.653 462.834 465.068 460.683 464.068 458.751C463.067 456.818 461.676 455.154 459.998 453.88C458.32 452.606 456.398 451.756 454.374 451.393Z" fill="#A0616A"/>
<path d="M454.034 501.513C464.131 544.804 459.785 584.4 422.185 615.49C377.086 602.078 347.091 569.719 328.79 522.69C327.652 519.766 327.075 516.623 327.094 513.452C327.113 510.281 327.728 507.147 328.901 504.239C330.073 501.331 331.78 498.709 333.918 496.533C336.056 494.356 338.58 492.669 341.339 491.574V491.574C345.484 489.93 349.995 489.686 354.272 490.876C358.548 492.065 362.388 494.63 365.28 498.231L409.53 553.33L430.289 497.772L454.034 501.513Z" fill="#CA30E3"/>
<path d="M685.104 728.639C643.925 726.279 618.344 711.025 612.148 679.746L618.781 666.628L694.715 703.947C696.632 704.889 698.246 706.425 699.352 708.36C700.457 710.294 701.005 712.539 700.925 714.81C700.845 717.081 700.141 719.275 698.902 721.113C697.663 722.951 695.946 724.351 693.968 725.133L685.104 728.639Z" fill="#E6E6E6"/>
<path d="M653.285 728.952C631.889 728.253 611.313 728.471 591.816 729.894C588.396 730.146 585.022 728.934 582.425 726.519C579.829 724.104 578.22 720.683 577.947 716.996L576.776 701.211L560.195 672.591L574.565 657.088C598.715 683.036 625.199 704.831 656.655 717.787C657.665 718.534 658.425 719.614 658.819 720.866C659.213 722.117 659.222 723.473 658.842 724.73C658.463 725.987 657.716 727.077 656.715 727.839C655.713 728.6 654.51 728.991 653.285 728.952V728.952Z" fill="#E6E6E6"/>
<path d="M536.982 616.542C509.661 669.283 482.791 704.837 447.446 723.869C403.961 739.353 372.18 718.839 347.409 676.765L419.259 625.486L429.76 636.815L524.931 558.683C527.256 556.308 530.356 555.019 533.556 555.096C536.757 555.173 539.8 556.609 542.025 559.093L623.202 666.628L613.254 684.516L536.982 616.542Z" fill="#2F2E41"/>
<path d="M561.301 678.554L523.718 616.542L532.561 598.655L582.303 654.703L561.301 678.554Z" fill="#2F2E41"/>
<path d="M344.646 480.595C365.402 480.595 382.229 462.442 382.229 440.049C382.229 417.656 365.402 399.503 344.646 399.503C323.889 399.503 307.062 417.656 307.062 440.049C307.062 462.442 323.889 480.595 344.646 480.595Z" fill="#A0616A"/>
<path d="M354.594 515.178L312.589 499.675C318.805 489.019 321.53 476.423 320.327 463.899H354.594C352.645 482.095 352.353 499.353 354.594 515.178Z" fill="#A0616A"/>
<path d="M444.13 623.697C437.832 626.487 437.372 635.53 431.418 638.604C402.634 653.461 372.182 665.517 351.278 686.901C302.427 651.113 257.149 539.961 315.905 491.327C335.961 503.989 353.876 513.049 353.488 491.327L444.13 623.697Z" fill="#DB00FF"/>
<path opacity="0.2" d="M418.706 575.996L398.257 568.245L357.91 602.232L339.824 531.988C338.569 527.117 336.537 529.586 333.618 532.97C330.576 529.932 326.792 527.896 322.713 527.102C318.633 526.308 314.428 526.789 310.594 528.489C306.76 530.188 303.455 533.034 301.071 536.693C298.687 540.351 297.322 544.669 297.138 549.137C294.986 600.089 309.229 643.195 344.646 676.168C390.969 665.468 410.628 631.703 418.706 587.922L416.516 586.347C417.323 582.963 418.053 579.513 418.706 575.996Z" fill="black"/>
<path d="M349.703 386.712C362.1 389.768 376.21 394.097 377.001 398.121C389.753 401.588 399.379 409.892 401.344 422.552C401.508 423.646 401.448 424.766 401.168 425.832C400.888 426.899 400.394 427.886 399.722 428.724C399.049 429.562 398.215 430.232 397.277 430.684C396.339 431.137 395.321 431.362 394.294 431.345C387.358 431.248 376.947 430.532 370.073 427.434C350.102 441.316 346.75 477.423 355.471 501.999L341.747 500.642L327.548 455.801L323.922 498.88L292.603 494.412L296.637 439.479C297.877 426.532 301.961 414.09 308.551 403.187C309.235 402.092 309.984 401.046 310.792 400.054C315.557 394.247 321.69 389.94 328.541 387.591C335.392 385.242 342.705 384.938 349.703 386.712V386.712Z" fill="#2F2E41"/>
<path d="M420.361 522.835L454.757 566.461L506.352 500.77L471.49 455.137L420.361 522.835Z" fill="#3F3D56"/>
<path d="M497.52 502.275L456.616 466.17C458.94 460.152 470.096 462.158 470.096 462.158L502.115 497.177C503.23 498.397 504.186 499.774 504.957 501.272V501.272L497.52 502.275Z" fill="#F2F2F2"/>
<path d="M499.38 499.767L452.898 460.653L401.303 544.899L449.876 580.252C454.525 582.257 459.173 578.747 459.173 578.747L506.584 500.519L499.38 499.767Z" fill="#3F3D56"/>
<path d="M458.694 472.862L458.254 473.521L488.005 496.585L488.445 495.925L458.694 472.862Z" fill="#6C63FF"/>
<path d="M488.839 504.558L449.795 568.243L450.423 568.692L489.468 505.006L488.839 504.558Z" fill="#6C63FF"/>
<path d="M414.08 545.068L413.633 545.722L445.234 570.806L445.68 570.151L414.08 545.068Z" fill="#6C63FF"/>
<path d="M453.053 473.961L412.614 536.643L413.232 537.107L453.671 474.425L453.053 473.961Z" fill="#6C63FF"/>
<path d="M465.545 461.661L465.23 462.03L502.011 498.447L502.326 498.078L465.545 461.661Z" fill="#B3B3B3"/>
<path d="M462.481 461.973L462.173 462.349L500.614 498.96L500.921 498.584L462.481 461.973Z" fill="#B3B3B3"/>
<path d="M460.076 462.702L459.778 463.088L499.683 498.973L499.981 498.587L460.076 462.702Z" fill="#B3B3B3"/>
<path d="M438.928 535.642C437.441 534.526 435.763 533.74 433.992 533.33C432.221 532.919 430.393 532.892 428.612 533.25C426.832 533.609 425.135 534.345 423.62 535.417C422.106 536.488 420.803 537.874 419.789 539.493L399.915 571.226L414.285 584.344L440.346 558.639C441.86 557.145 443.043 555.303 443.808 553.249C444.572 551.195 444.899 548.981 444.762 546.773C444.626 544.564 444.031 542.417 443.021 540.49C442.011 538.563 440.612 536.906 438.928 535.642V535.642Z" fill="#A0616A"/>
<path d="M418.706 580.767C410.628 624.548 390.969 658.313 344.646 669.013C309.229 636.04 294.986 592.934 297.138 541.982C297.272 538.814 297.999 535.708 299.276 532.852C300.554 529.995 302.354 527.448 304.569 525.363C306.784 523.278 309.368 521.699 312.164 520.721C314.96 519.743 317.911 519.386 320.839 519.673V519.673C325.237 520.104 329.41 521.97 332.801 525.022C336.192 528.074 338.642 532.168 339.824 536.759L357.91 607.002L398.74 566.406L418.706 580.767Z" fill="#E021FF"/>
<path d="M975.563 730H0V727.398H976L975.563 730Z" fill="#3F3D56"/>
<path d="M509.9 109.124C509.314 109.125 508.752 109.376 508.338 109.823C507.923 110.27 507.69 110.877 507.689 111.509V297.543C507.69 298.175 507.923 298.781 508.338 299.228C508.752 299.675 509.314 299.927 509.9 299.928H653.6C654.186 299.927 654.748 299.675 655.163 299.228C655.577 298.781 655.81 298.175 655.811 297.543V111.509C655.81 110.877 655.577 110.27 655.163 109.823C654.748 109.376 654.186 109.125 653.6 109.124H509.9Z" fill="#E6E6E6"/>
<path d="M524.823 281.443H638.678V127.608H524.823V281.443Z" fill="white"/>
<path d="M749.142 158.017C748.792 158.018 748.456 158.168 748.209 158.435C747.961 158.702 747.822 159.064 747.822 159.441V251.995C747.822 252.373 747.961 252.735 748.209 253.002C748.456 253.269 748.792 253.419 749.142 253.419H852.091C852.441 253.419 852.776 253.268 853.024 253.002C853.271 252.735 853.41 252.373 853.411 251.995V159.441C853.41 159.064 853.271 158.702 853.024 158.435C852.776 158.168 852.441 158.018 852.091 158.017L749.142 158.017Z" fill="#E6E6E6"/>
<path d="M758.051 169.053V242.384H843.182V169.053H758.051Z" fill="white"/>
<path d="M601.854 122.242H561.647C560.676 122.246 559.72 121.973 558.878 121.451C558.036 120.928 557.336 120.175 556.85 119.267C556.364 118.359 556.109 117.329 556.111 116.281C556.113 115.233 556.372 114.204 556.861 113.298L576.964 75.7334C576.98 75.7025 576.998 75.6716 577.014 75.6408C577.454 74.8418 578.062 74.1662 578.789 73.6691C579.517 73.1721 580.343 72.8676 581.2 72.7806L581.229 72.7777C581.401 72.7608 581.575 72.7521 581.751 72.7521C582.722 72.7458 583.677 73.0187 584.518 73.5427C585.36 74.0666 586.056 74.8227 586.537 75.7334L606.64 113.298C607.125 114.204 607.38 115.232 607.38 116.279C607.38 117.326 607.125 118.354 606.64 119.26C606.155 120.167 605.457 120.919 604.617 121.443C603.777 121.966 602.824 122.242 601.854 122.242V122.242ZM560.538 116.273C560.539 116.485 560.592 116.692 560.69 116.875C560.785 117.058 560.925 117.21 561.093 117.315C561.261 117.42 561.453 117.474 561.647 117.472H601.854C602.048 117.474 602.239 117.42 602.408 117.315C602.576 117.21 602.716 117.058 602.811 116.875C602.909 116.692 602.961 116.485 602.963 116.274C602.962 116.066 602.909 115.862 602.811 115.683L582.708 78.1184C582.611 77.9371 582.471 77.7866 582.303 77.6819C582.135 77.5772 581.944 77.5221 581.75 77.5221C581.556 77.5221 581.366 77.5772 581.198 77.6819C581.03 77.7866 580.89 77.9371 580.793 78.1184L560.69 115.683C560.591 115.862 560.539 116.065 560.538 116.273V116.273Z" fill="#E6E6E6"/>
<path d="M581.75 84.0809C583.582 84.0809 585.066 82.4792 585.066 80.5033C585.066 78.5275 583.582 76.9258 581.75 76.9258C579.919 76.9258 578.434 78.5275 578.434 80.5033C578.434 82.4792 579.919 84.0809 581.75 84.0809Z" fill="#E6E6E6"/>
<path d="M811.515 160.999H789.717C789.19 161.001 788.672 160.853 788.215 160.57C787.759 160.287 787.379 159.878 787.116 159.386C786.852 158.894 786.714 158.335 786.715 157.767C786.716 157.199 786.857 156.641 787.122 156.15L798.021 135.783L798.048 135.733C798.286 135.3 798.616 134.934 799.011 134.664C799.405 134.395 799.853 134.23 800.318 134.183L800.333 134.181C800.427 134.172 800.521 134.167 800.616 134.167C801.143 134.164 801.661 134.312 802.117 134.596C802.573 134.88 802.951 135.29 803.211 135.783L814.11 156.15C814.373 156.641 814.512 157.199 814.512 157.766C814.512 158.334 814.373 158.891 814.11 159.382C813.847 159.874 813.469 160.282 813.014 160.566C812.558 160.849 812.041 160.999 811.515 160.999V160.999ZM789.115 157.763C789.116 157.878 789.145 157.99 789.198 158.089C789.25 158.188 789.325 158.271 789.416 158.328C789.508 158.384 789.611 158.414 789.717 158.413H811.515C811.621 158.414 811.725 158.384 811.816 158.328C811.907 158.271 811.983 158.188 812.035 158.089C812.088 157.99 812.116 157.878 812.117 157.763C812.116 157.651 812.088 157.54 812.035 157.443L801.135 137.077C801.083 136.978 801.007 136.897 800.916 136.84C800.825 136.783 800.721 136.753 800.616 136.753C800.511 136.753 800.408 136.783 800.316 136.84C800.225 136.897 800.15 136.978 800.097 137.077L789.198 157.443C789.144 157.54 789.116 157.65 789.115 157.763V157.763Z" fill="#E6E6E6"/>
<path d="M800.616 140.309C801.609 140.309 802.414 139.441 802.414 138.37C802.414 137.298 801.609 136.43 800.616 136.43C799.623 136.43 798.818 137.298 798.818 138.37C798.818 139.441 799.623 140.309 800.616 140.309Z" fill="#E6E6E6"/>
<path d="M526.125 222.868C527.714 218.933 530.029 215.389 532.93 212.451C535.831 209.514 539.256 207.245 542.996 205.782C546.886 204.163 551.054 203.468 555.215 203.748C559.376 204.027 563.433 205.273 567.106 207.401C575.733 212.34 582.629 220.105 591.389 224.832C599.907 229.384 609.281 231.767 618.787 231.795C629.55 231.885 640.146 228.918 649.509 223.192C649.873 222.944 650.134 222.553 650.236 222.102C650.338 221.651 650.273 221.175 650.056 220.774C649.839 220.374 649.486 220.08 649.072 219.954C648.658 219.829 648.214 219.882 647.836 220.102C639.349 225.233 629.818 228.019 620.092 228.211C610.365 228.404 600.746 225.997 592.091 221.206C583.302 216.234 576.338 208.207 567.385 203.548C563.584 201.558 559.455 200.402 555.236 200.147C551.018 199.891 546.795 200.542 542.812 202.06C538.383 203.663 534.321 206.262 530.893 209.685C527.465 213.108 524.75 217.277 522.928 221.917C522.123 224.048 525.33 224.975 526.125 222.868V222.868Z" fill="#E6E6E6"/>
<path d="M523.505 256.31C541.908 251.877 560.998 251.948 579.372 256.518C595.694 260.602 612.544 267.949 629.373 262.47C636.891 260.022 643.782 255.126 647.644 247.591C648.678 245.574 645.815 243.768 644.781 245.785C637.508 259.972 620.471 262.366 607.014 260.038C598.022 258.483 589.357 255.364 580.506 253.132C561.48 248.319 541.689 248.226 522.624 252.86C520.542 253.361 521.423 256.811 523.505 256.31V256.31Z" fill="#E6E6E6"/>
<path d="M522.31 176.341C539.955 173.103 558.028 173.796 575.415 178.379C591.659 182.672 607.537 192.481 624.712 190.787C632.664 190.003 640.537 186.848 645.939 180.285C647.351 178.569 645.014 176.03 643.594 177.755C638.934 183.417 632.222 186.351 625.334 187.144C617.396 188.058 609.596 186.283 602.04 183.762C593.676 180.971 585.551 177.436 577.048 175.13C558.856 170.202 539.91 169.439 521.429 172.891C519.329 173.278 520.22 176.726 522.31 176.341V176.341Z" fill="#E6E6E6"/>
<path d="M772.876 167.844C780.5 176.267 785.759 186.846 788.044 198.357C789.802 207.515 789.603 216.984 787.464 226.046C785.326 235.109 781.302 243.527 775.699 250.663C774.325 252.408 776.66 254.951 778.044 253.192C785.677 243.491 790.551 231.617 792.081 218.999C793.196 209.259 792.258 199.373 789.339 190.078C786.42 180.782 781.594 172.318 775.221 165.315C773.724 163.668 771.38 166.198 772.876 167.844Z" fill="#E6E6E6"/>
<path d="M822.63 160.21C812.467 168.252 806.777 181.231 805.977 194.656C805.143 208.625 810.081 222.115 818.033 232.961C822.673 239.206 828.215 244.603 834.447 248.945C836.238 250.209 837.901 247.113 836.12 245.856C825.968 238.69 817.281 228.509 812.667 216.292C810.418 210.489 809.252 204.265 809.236 197.975C809.219 191.685 810.353 185.453 812.571 179.637C815.055 173.156 819.107 167.514 824.303 163.299C826.007 161.952 824.354 158.846 822.63 160.21V160.21Z" fill="#E6E6E6"/>
<path d="M589.488 196.178C598.035 196.178 604.963 188.703 604.963 179.483C604.963 170.262 598.035 162.788 589.488 162.788C580.941 162.788 574.013 170.262 574.013 179.483C574.013 188.703 580.941 196.178 589.488 196.178Z" fill="#E6E6E6"/>
</g>
<defs>
<linearGradient id="paint0_linear" x1="284.875" y1="0" x2="284.875" y2="176.493" gradientUnits="userSpaceOnUse">
<stop stop-color="#BD00FF"/>
<stop offset="1" stop-color="#DC7AFF"/>
</linearGradient>
<clipPath id="clip0">
<rect width="976" height="730" fill="white"/>
</clipPath>
</defs>
</svg>
